<svg id="visual" viewBox="0 0 900 600" width="900" height="600" xmlns="http://www.w3.org/2000/svg" xmlns:xlink="http://www.w3.org/1999/xlink" version="1.1"><path d="M0 539L25 535.7C50 532.3 100 525.7 150 524.8C200 524 250 529 300 527.5C350 526 400 518 450 515.2C500 512.3 550 514.7 600 516.3C650 518 700 519 750 521.7C800 524.3 850 528.7 875 530.8L900 533L900 601L875 601C850 601 800 601 750 601C700 601 650 601 600 601C550 601 500 601 450 601C400 601 350 601 300 601C250 601 200 601 150 601C100 601 50 601 25 601L0 601Z" fill="#fcaf3c"></path><path d="M0 517L25 517.7C50 518.3 100 519.7 150 520C200 520.3 250 519.7 300 519.8C350 520 400 521 450 523.8C500 526.7 550 531.3 600 533.8C650 536.3 700 536.7 750 534C800 531.3 850 525.7 875 522.8L900 520L900 601L875 601C850 601 800 601 750 601C700 601 650 601 600 601C550 601 500 601 450 601C400 601 350 601 300 601C250 601 200 601 150 601C100 601 50 601 25 601L0 601Z" fill="#f89b2c"></path><path d="M0 564L25 560C50 556 100 548 150 545.3C200 542.7 250 545.3 300 547.2C350 549 400 550 450 548.5C500 547 550 543 600 541C650 539 700 539 750 541.8C800 544.7 850 550.3 875 553.2L900 556L900 601L875 601C850 601 800 601 750 601C700 601 650 601 600 601C550 601 500 601 450 601C400 601 350 601 300 601C250 601 200 601 150 601C100 601 50 601 25 601L0 601Z" fill="#f4861e"></path><path d="M0 556L25 558.3C50 560.7 100 565.3 150 567.8C200 570.3 250 570.7 300 568.7C350 566.7 400 562.3 450 561.8C500 561.3 550 564.7 600 564.5C650 564.3 700 560.7 750 561.8C800 563 850 569 875 572L900 575L900 601L875 601C850 601 800 601 750 601C700 601 650 601 600 601C550 601 500 601 450 601C400 601 350 601 300 601C250 601 200 601 150 601C100 601 50 601 25 601L0 601Z" fill="#ef7013"></path><path d="M0 582L25 581C50 580 100 578 150 577.7C200 577.3 250 578.7 300 578.7C350 578.7 400 577.3 450 577C500 576.7 550 577.3 600 576.3C650 575.3 700 572.7 750 572.8C800 573 850 576 875 577.5L900 579L900 601L875 601C850 601 800 601 750 601C700 601 650 601 600 601C550 601 500 601 450 601C400 601 350 601 300 601C250 601 200 601 150 601C100 601 50 601 25 601L0 601Z" fill="#ea580c"></path></svg>