<svg width="451" height="128" viewBox="0 0 451 128" fill="none" xmlns="http://www.w3.org/2000/svg">
    <mask id="path-1-outside-1_2_60" maskUnits="userSpaceOnUse" x="31" y="16" width="399" height="101" fill="black">
    <rect fill="white" x="31" y="16" width="399" height="101"/>
    <path d="M34.0682 93V23.1818H61.6136C66.9091 23.1818 71.4205 24.1932 75.1477 26.2159C78.875 28.2159 81.7159 31 83.6705 34.5682C85.6477 38.1136 86.6364 42.2045 86.6364 46.8409C86.6364 51.4773 85.6364 55.5682 83.6364 59.1136C81.6364 62.6591 78.7386 65.4205 74.9432 67.3977C71.1705 69.375 66.6023 70.3636 61.2386 70.3636H43.6818V58.5341H58.8523C61.6932 58.5341 64.0341 58.0455 65.875 57.0682C67.7386 56.0682 69.125 54.6932 70.0341 52.9432C70.9659 51.1705 71.4318 49.1364 71.4318 46.8409C71.4318 44.5227 70.9659 42.5 70.0341 40.7727C69.125 39.0227 67.7386 37.6705 65.875 36.7159C64.0114 35.7386 61.6477 35.25 58.7841 35.25H48.8295V93H34.0682ZM95.9517 93V40.6364H110.031V49.7727H110.577C111.531 46.5227 113.134 44.0682 115.384 42.4091C117.634 40.7273 120.224 39.8864 123.156 39.8864C123.884 39.8864 124.668 39.9318 125.509 40.0227C126.349 40.1136 127.088 40.2386 127.724 40.3977V53.2841C127.043 53.0795 126.099 52.8977 124.895 52.7386C123.69 52.5795 122.588 52.5 121.588 52.5C119.452 52.5 117.543 52.9659 115.861 53.8977C114.202 54.8068 112.884 56.0795 111.906 57.7159C110.952 59.3523 110.474 61.2386 110.474 63.375V93H95.9517ZM148.665 93.9886C145.324 93.9886 142.347 93.4091 139.733 92.25C137.119 91.0682 135.051 89.3295 133.528 87.0341C132.028 84.7159 131.278 81.8295 131.278 78.375C131.278 75.4659 131.813 73.0227 132.881 71.0455C133.949 69.0682 135.403 67.4773 137.244 66.2727C139.085 65.0682 141.176 64.1591 143.517 63.5455C145.881 62.9318 148.358 62.5 150.949 62.25C153.994 61.9318 156.449 61.6364 158.312 61.3636C160.176 61.0682 161.528 60.6364 162.369 60.0682C163.21 59.5 163.631 58.6591 163.631 57.5455V57.3409C163.631 55.1818 162.949 53.5114 161.585 52.3295C160.244 51.1477 158.335 50.5568 155.858 50.5568C153.244 50.5568 151.165 51.1364 149.619 52.2955C148.074 53.4318 147.051 54.8636 146.551 56.5909L133.119 55.5C133.801 52.3182 135.142 49.5682 137.142 47.25C139.142 44.9091 141.722 43.1136 144.881 41.8636C148.063 40.5909 151.744 39.9545 155.926 39.9545C158.835 39.9545 161.619 40.2955 164.278 40.9773C166.96 41.6591 169.335 42.7159 171.403 44.1477C173.494 45.5795 175.142 47.4205 176.347 49.6705C177.551 51.8977 178.153 54.5682 178.153 57.6818V93H164.381V85.7386H163.972C163.131 87.375 162.006 88.8182 160.597 90.0682C159.188 91.2955 157.494 92.2614 155.517 92.9659C153.54 93.6477 151.256 93.9886 148.665 93.9886ZM152.824 83.9659C154.96 83.9659 156.847 83.5455 158.483 82.7045C160.119 81.8409 161.403 80.6818 162.335 79.2273C163.267 77.7727 163.733 76.125 163.733 74.2841V68.7273C163.278 69.0227 162.653 69.2955 161.858 69.5455C161.085 69.7727 160.21 69.9886 159.233 70.1932C158.256 70.375 157.278 70.5455 156.301 70.7045C155.324 70.8409 154.438 70.9659 153.642 71.0795C151.938 71.3295 150.449 71.7273 149.176 72.2727C147.903 72.8182 146.915 73.5568 146.21 74.4886C145.506 75.3977 145.153 76.5341 145.153 77.8977C145.153 79.875 145.869 81.3864 147.301 82.4318C148.756 83.4545 150.597 83.9659 152.824 83.9659ZM213.011 113.727C208.307 113.727 204.273 113.08 200.909 111.784C197.568 110.511 194.909 108.773 192.932 106.568C190.955 104.364 189.67 101.886 189.08 99.1364L202.511 97.3295C202.92 98.375 203.568 99.3523 204.455 100.261C205.341 101.17 206.511 101.898 207.966 102.443C209.443 103.011 211.239 103.295 213.352 103.295C216.511 103.295 219.114 102.523 221.159 100.977C223.227 99.4545 224.261 96.8977 224.261 93.3068V83.7273H223.648C223.011 85.1818 222.057 86.5568 220.784 87.8523C219.511 89.1477 217.875 90.2045 215.875 91.0227C213.875 91.8409 211.489 92.25 208.716 92.25C204.784 92.25 201.205 91.3409 197.977 89.5227C194.773 87.6818 192.216 84.875 190.307 81.1023C188.42 77.3068 187.477 72.5114 187.477 66.7159C187.477 60.7841 188.443 55.8295 190.375 51.8523C192.307 47.875 194.875 44.8977 198.08 42.9205C201.307 40.9432 204.841 39.9545 208.682 39.9545C211.614 39.9545 214.068 40.4545 216.045 41.4545C218.023 42.4318 219.614 43.6591 220.818 45.1364C222.045 46.5909 222.989 48.0227 223.648 49.4318H224.193V40.6364H238.614V93.5114C238.614 97.9659 237.523 101.693 235.341 104.693C233.159 107.693 230.136 109.943 226.273 111.443C222.432 112.966 218.011 113.727 213.011 113.727ZM213.318 81.3409C215.659 81.3409 217.636 80.7614 219.25 79.6023C220.886 78.4205 222.136 76.7386 223 74.5568C223.886 72.3523 224.33 69.7159 224.33 66.6477C224.33 63.5795 223.898 60.9205 223.034 58.6705C222.17 56.3977 220.92 54.6364 219.284 53.3864C217.648 52.1364 215.659 51.5114 213.318 51.5114C210.932 51.5114 208.92 52.1591 207.284 53.4545C205.648 54.7273 204.409 56.5 203.568 58.7727C202.727 61.0455 202.307 63.6705 202.307 66.6477C202.307 69.6705 202.727 72.2841 203.568 74.4886C204.432 76.6705 205.67 78.3636 207.284 79.5682C208.92 80.75 210.932 81.3409 213.318 81.3409ZM250.17 93V40.6364H264.011V49.875H264.625C265.716 46.8068 267.534 44.3864 270.08 42.6136C272.625 40.8409 275.67 39.9545 279.216 39.9545C282.807 39.9545 285.864 40.8523 288.386 42.6477C290.909 44.4205 292.591 46.8295 293.432 49.875H293.977C295.045 46.875 296.977 44.4773 299.773 42.6818C302.591 40.8636 305.92 39.9545 309.761 39.9545C314.648 39.9545 318.614 41.5114 321.659 44.625C324.727 47.7159 326.261 52.1023 326.261 57.7841V93H311.773V60.6477C311.773 57.7386 311 55.5568 309.455 54.1023C307.909 52.6477 305.977 51.9205 303.659 51.9205C301.023 51.9205 298.966 52.7614 297.489 54.4432C296.011 56.1023 295.273 58.2955 295.273 61.0227V93H281.193V60.3409C281.193 57.7727 280.455 55.7273 278.977 54.2045C277.523 52.6818 275.602 51.9205 273.216 51.9205C271.602 51.9205 270.148 52.3295 268.852 53.1477C267.58 53.9432 266.568 55.0682 265.818 56.5227C265.068 57.9545 264.693 59.6364 264.693 61.5682V93H250.17ZM337.733 93V40.6364H352.256V93H337.733ZM345.028 33.8864C342.869 33.8864 341.017 33.1705 339.472 31.7386C337.949 30.2841 337.188 28.5455 337.188 26.5227C337.188 24.5227 337.949 22.8068 339.472 21.375C341.017 19.9205 342.869 19.1932 345.028 19.1932C347.188 19.1932 349.028 19.9205 350.551 21.375C352.097 22.8068 352.869 24.5227 352.869 26.5227C352.869 28.5455 352.097 30.2841 350.551 31.7386C349.028 33.1705 347.188 33.8864 345.028 33.8864ZM378.003 23.1818L392.082 46.9773H392.628L406.776 23.1818H423.446L402.139 58.0909L423.923 93H406.946L392.628 69.1705H392.082L377.764 93H360.855L382.707 58.0909L361.264 23.1818H378.003Z"/>
    </mask>
    <path d="M34.0682 93V23.1818H61.6136C66.9091 23.1818 71.4205 24.1932 75.1477 26.2159C78.875 28.2159 81.7159 31 83.6705 34.5682C85.6477 38.1136 86.6364 42.2045 86.6364 46.8409C86.6364 51.4773 85.6364 55.5682 83.6364 59.1136C81.6364 62.6591 78.7386 65.4205 74.9432 67.3977C71.1705 69.375 66.6023 70.3636 61.2386 70.3636H43.6818V58.5341H58.8523C61.6932 58.5341 64.0341 58.0455 65.875 57.0682C67.7386 56.0682 69.125 54.6932 70.0341 52.9432C70.9659 51.1705 71.4318 49.1364 71.4318 46.8409C71.4318 44.5227 70.9659 42.5 70.0341 40.7727C69.125 39.0227 67.7386 37.6705 65.875 36.7159C64.0114 35.7386 61.6477 35.25 58.7841 35.25H48.8295V93H34.0682ZM95.9517 93V40.6364H110.031V49.7727H110.577C111.531 46.5227 113.134 44.0682 115.384 42.4091C117.634 40.7273 120.224 39.8864 123.156 39.8864C123.884 39.8864 124.668 39.9318 125.509 40.0227C126.349 40.1136 127.088 40.2386 127.724 40.3977V53.2841C127.043 53.0795 126.099 52.8977 124.895 52.7386C123.69 52.5795 122.588 52.5 121.588 52.5C119.452 52.5 117.543 52.9659 115.861 53.8977C114.202 54.8068 112.884 56.0795 111.906 57.7159C110.952 59.3523 110.474 61.2386 110.474 63.375V93H95.9517ZM148.665 93.9886C145.324 93.9886 142.347 93.4091 139.733 92.25C137.119 91.0682 135.051 89.3295 133.528 87.0341C132.028 84.7159 131.278 81.8295 131.278 78.375C131.278 75.4659 131.813 73.0227 132.881 71.0455C133.949 69.0682 135.403 67.4773 137.244 66.2727C139.085 65.0682 141.176 64.1591 143.517 63.5455C145.881 62.9318 148.358 62.5 150.949 62.25C153.994 61.9318 156.449 61.6364 158.312 61.3636C160.176 61.0682 161.528 60.6364 162.369 60.0682C163.21 59.5 163.631 58.6591 163.631 57.5455V57.3409C163.631 55.1818 162.949 53.5114 161.585 52.3295C160.244 51.1477 158.335 50.5568 155.858 50.5568C153.244 50.5568 151.165 51.1364 149.619 52.2955C148.074 53.4318 147.051 54.8636 146.551 56.5909L133.119 55.5C133.801 52.3182 135.142 49.5682 137.142 47.25C139.142 44.9091 141.722 43.1136 144.881 41.8636C148.063 40.5909 151.744 39.9545 155.926 39.9545C158.835 39.9545 161.619 40.2955 164.278 40.9773C166.96 41.6591 169.335 42.7159 171.403 44.1477C173.494 45.5795 175.142 47.4205 176.347 49.6705C177.551 51.8977 178.153 54.5682 178.153 57.6818V93H164.381V85.7386H163.972C163.131 87.375 162.006 88.8182 160.597 90.0682C159.188 91.2955 157.494 92.2614 155.517 92.9659C153.54 93.6477 151.256 93.9886 148.665 93.9886ZM152.824 83.9659C154.96 83.9659 156.847 83.5455 158.483 82.7045C160.119 81.8409 161.403 80.6818 162.335 79.2273C163.267 77.7727 163.733 76.125 163.733 74.2841V68.7273C163.278 69.0227 162.653 69.2955 161.858 69.5455C161.085 69.7727 160.21 69.9886 159.233 70.1932C158.256 70.375 157.278 70.5455 156.301 70.7045C155.324 70.8409 154.438 70.9659 153.642 71.0795C151.938 71.3295 150.449 71.7273 149.176 72.2727C147.903 72.8182 146.915 73.5568 146.21 74.4886C145.506 75.3977 145.153 76.5341 145.153 77.8977C145.153 79.875 145.869 81.3864 147.301 82.4318C148.756 83.4545 150.597 83.9659 152.824 83.9659ZM213.011 113.727C208.307 113.727 204.273 113.08 200.909 111.784C197.568 110.511 194.909 108.773 192.932 106.568C190.955 104.364 189.67 101.886 189.08 99.1364L202.511 97.3295C202.92 98.375 203.568 99.3523 204.455 100.261C205.341 101.17 206.511 101.898 207.966 102.443C209.443 103.011 211.239 103.295 213.352 103.295C216.511 103.295 219.114 102.523 221.159 100.977C223.227 99.4545 224.261 96.8977 224.261 93.3068V83.7273H223.648C223.011 85.1818 222.057 86.5568 220.784 87.8523C219.511 89.1477 217.875 90.2045 215.875 91.0227C213.875 91.8409 211.489 92.25 208.716 92.25C204.784 92.25 201.205 91.3409 197.977 89.5227C194.773 87.6818 192.216 84.875 190.307 81.1023C188.42 77.3068 187.477 72.5114 187.477 66.7159C187.477 60.7841 188.443 55.8295 190.375 51.8523C192.307 47.875 194.875 44.8977 198.08 42.9205C201.307 40.9432 204.841 39.9545 208.682 39.9545C211.614 39.9545 214.068 40.4545 216.045 41.4545C218.023 42.4318 219.614 43.6591 220.818 45.1364C222.045 46.5909 222.989 48.0227 223.648 49.4318H224.193V40.6364H238.614V93.5114C238.614 97.9659 237.523 101.693 235.341 104.693C233.159 107.693 230.136 109.943 226.273 111.443C222.432 112.966 218.011 113.727 213.011 113.727ZM213.318 81.3409C215.659 81.3409 217.636 80.7614 219.25 79.6023C220.886 78.4205 222.136 76.7386 223 74.5568C223.886 72.3523 224.33 69.7159 224.33 66.6477C224.33 63.5795 223.898 60.9205 223.034 58.6705C222.17 56.3977 220.92 54.6364 219.284 53.3864C217.648 52.1364 215.659 51.5114 213.318 51.5114C210.932 51.5114 208.92 52.1591 207.284 53.4545C205.648 54.7273 204.409 56.5 203.568 58.7727C202.727 61.0455 202.307 63.6705 202.307 66.6477C202.307 69.6705 202.727 72.2841 203.568 74.4886C204.432 76.6705 205.67 78.3636 207.284 79.5682C208.92 80.75 210.932 81.3409 213.318 81.3409ZM250.17 93V40.6364H264.011V49.875H264.625C265.716 46.8068 267.534 44.3864 270.08 42.6136C272.625 40.8409 275.67 39.9545 279.216 39.9545C282.807 39.9545 285.864 40.8523 288.386 42.6477C290.909 44.4205 292.591 46.8295 293.432 49.875H293.977C295.045 46.875 296.977 44.4773 299.773 42.6818C302.591 40.8636 305.92 39.9545 309.761 39.9545C314.648 39.9545 318.614 41.5114 321.659 44.625C324.727 47.7159 326.261 52.1023 326.261 57.7841V93H311.773V60.6477C311.773 57.7386 311 55.5568 309.455 54.1023C307.909 52.6477 305.977 51.9205 303.659 51.9205C301.023 51.9205 298.966 52.7614 297.489 54.4432C296.011 56.1023 295.273 58.2955 295.273 61.0227V93H281.193V60.3409C281.193 57.7727 280.455 55.7273 278.977 54.2045C277.523 52.6818 275.602 51.9205 273.216 51.9205C271.602 51.9205 270.148 52.3295 268.852 53.1477C267.58 53.9432 266.568 55.0682 265.818 56.5227C265.068 57.9545 264.693 59.6364 264.693 61.5682V93H250.17ZM337.733 93V40.6364H352.256V93H337.733ZM345.028 33.8864C342.869 33.8864 341.017 33.1705 339.472 31.7386C337.949 30.2841 337.188 28.5455 337.188 26.5227C337.188 24.5227 337.949 22.8068 339.472 21.375C341.017 19.9205 342.869 19.1932 345.028 19.1932C347.188 19.1932 349.028 19.9205 350.551 21.375C352.097 22.8068 352.869 24.5227 352.869 26.5227C352.869 28.5455 352.097 30.2841 350.551 31.7386C349.028 33.1705 347.188 33.8864 345.028 33.8864ZM378.003 23.1818L392.082 46.9773H392.628L406.776 23.1818H423.446L402.139 58.0909L423.923 93H406.946L392.628 69.1705H392.082L377.764 93H360.855L382.707 58.0909L361.264 23.1818H378.003Z" fill="white"/>
    <path d="M34.0682 93H31.0682V96H34.0682V93ZM34.0682 23.1818V20.1818H31.0682V23.1818H34.0682ZM75.1477 26.2159L73.7168 28.8527L73.723 28.856L73.7293 28.8594L75.1477 26.2159ZM83.6705 34.5682L81.0393 36.0094L81.0448 36.0194L81.0504 36.0294L83.6705 34.5682ZM74.9432 67.3977L73.5571 64.7371L73.5506 64.7405L74.9432 67.3977ZM43.6818 70.3636H40.6818V73.3636H43.6818V70.3636ZM43.6818 58.5341V55.5341H40.6818V58.5341H43.6818ZM65.875 57.0682L67.2817 59.718L67.2935 59.7117L65.875 57.0682ZM70.0341 52.9432L67.3786 51.5473L67.3752 51.5538L67.3719 51.5602L70.0341 52.9432ZM70.0341 40.7727L67.3719 42.1557L67.3827 42.1765L67.3938 42.1971L70.0341 40.7727ZM65.875 36.7159L64.4818 39.3728L64.4945 39.3795L64.5074 39.386L65.875 36.7159ZM48.8295 35.25V32.25H45.8295V35.25H48.8295ZM48.8295 93V96H51.8295V93H48.8295ZM37.0682 93V23.1818H31.0682V93H37.0682ZM34.0682 26.1818H61.6136V20.1818H34.0682V26.1818ZM61.6136 26.1818C66.5315 26.1818 70.525 27.1205 73.7168 28.8527L76.5787 23.5792C72.3159 21.2659 67.2867 20.1818 61.6136 20.1818V26.1818ZM73.7293 28.8594C76.9659 30.5961 79.3755 32.9719 81.0393 36.0094L86.3016 33.1269C84.0563 29.0281 80.7842 25.8357 76.5662 23.5724L73.7293 28.8594ZM81.0504 36.0294C82.7449 39.0679 83.6364 42.6424 83.6364 46.8409H89.6364C89.6364 41.7667 88.5505 37.1593 86.2905 33.107L81.0504 36.0294ZM83.6364 46.8409C83.6364 51.0337 82.7362 54.6035 81.0234 57.6397L86.2493 60.5876C88.5366 56.5329 89.6364 51.9209 89.6364 46.8409H83.6364ZM81.0234 57.6397C79.3239 60.6525 76.8652 63.0138 73.5571 64.7371L76.3292 70.0583C80.6121 67.8271 83.9488 64.6657 86.2493 60.5876L81.0234 57.6397ZM73.5506 64.7405C70.3046 66.4417 66.2402 67.3636 61.2386 67.3636V73.3636C66.9644 73.3636 72.0363 72.3083 76.3358 70.0549L73.5506 64.7405ZM61.2386 67.3636H43.6818V73.3636H61.2386V67.3636ZM46.6818 70.3636V58.5341H40.6818V70.3636H46.6818ZM43.6818 61.5341H58.8523V55.5341H43.6818V61.5341ZM58.8523 61.5341C62.014 61.5341 64.8791 60.9934 67.2817 59.718L64.4683 54.4184C63.1891 55.0975 61.3724 55.5341 58.8523 55.5341V61.5341ZM67.2935 59.7117C69.6485 58.448 71.4884 56.6513 72.6963 54.3261L67.3719 51.5602C66.7616 52.735 65.8288 53.6884 64.4565 54.4247L67.2935 59.7117ZM72.6896 54.339C73.8788 52.0766 74.4318 49.5511 74.4318 46.8409H68.4318C68.4318 48.7216 68.053 50.2643 67.3786 51.5473L72.6896 54.339ZM74.4318 46.8409C74.4318 44.1156 73.8817 41.5863 72.6744 39.3484L67.3938 42.1971C68.0501 43.4137 68.4318 44.9299 68.4318 46.8409H74.4318ZM72.6963 39.3898C71.4816 37.0515 69.6247 35.2659 67.2426 34.0458L64.5074 39.386C65.8525 40.075 66.7684 40.9939 67.3719 42.1557L72.6963 39.3898ZM67.2682 34.059C64.848 32.7899 61.9663 32.25 58.7841 32.25V38.25C61.3292 38.25 63.1747 38.6874 64.4818 39.3728L67.2682 34.059ZM58.7841 32.25H48.8295V38.25H58.7841V32.25ZM45.8295 35.25V93H51.8295V35.25H45.8295ZM48.8295 90H34.0682V96H48.8295V90ZM95.9517 93H92.9517V96H95.9517V93ZM95.9517 40.6364V37.6364H92.9517V40.6364H95.9517ZM110.031 40.6364H113.031V37.6364H110.031V40.6364ZM110.031 49.7727H107.031V52.7727H110.031V49.7727ZM110.577 49.7727V52.7727H112.822L113.455 50.6181L110.577 49.7727ZM115.384 42.4091L117.164 44.8236L117.172 44.8178L117.18 44.812L115.384 42.4091ZM125.509 40.0227L125.831 37.0401L125.831 37.0401L125.509 40.0227ZM127.724 40.3977H130.724V38.0554L128.452 37.4873L127.724 40.3977ZM127.724 53.2841L126.862 56.1576L130.724 57.3162V53.2841H127.724ZM115.861 53.8977L117.302 56.5287L117.315 56.5219L115.861 53.8977ZM111.906 57.7159L109.331 56.1777L109.323 56.1909L109.315 56.2043L111.906 57.7159ZM110.474 93V96H113.474V93H110.474ZM98.9517 93V40.6364H92.9517V93H98.9517ZM95.9517 43.6364H110.031V37.6364H95.9517V43.6364ZM107.031 40.6364V49.7727H113.031V40.6364H107.031ZM110.031 52.7727H110.577V46.7727H110.031V52.7727ZM113.455 50.6181C114.265 47.8604 115.546 46.0169 117.164 44.8236L113.603 39.9945C110.721 42.1195 108.797 45.1851 107.698 48.9273L113.455 50.6181ZM117.18 44.812C118.887 43.5356 120.842 42.8864 123.156 42.8864V36.8864C119.607 36.8864 116.38 37.919 113.587 40.0062L117.18 44.812ZM123.156 42.8864C123.76 42.8864 124.435 42.9242 125.186 43.0053L125.831 37.0401C124.9 36.9394 124.007 36.8864 123.156 36.8864V42.8864ZM125.186 43.0053C125.927 43.0855 126.525 43.1903 126.997 43.3082L128.452 37.4873C127.651 37.287 126.772 37.1418 125.831 37.0401L125.186 43.0053ZM124.724 40.3977V53.2841H130.724V40.3977H124.724ZM128.586 50.4106C127.681 50.139 126.557 49.9321 125.288 49.7645L124.502 55.7128C125.642 55.8634 126.404 56.0201 126.862 56.1576L128.586 50.4106ZM125.288 49.7645C123.98 49.5917 122.744 49.5 121.588 49.5V55.5C122.432 55.5 123.401 55.5674 124.502 55.7128L125.288 49.7645ZM121.588 49.5C119.001 49.5 116.582 50.0687 114.407 51.2736L117.315 56.5219C118.504 55.8631 119.903 55.5 121.588 55.5V49.5ZM114.419 51.2668C112.288 52.4347 110.58 54.0862 109.331 56.1777L114.482 59.2541C115.187 58.0729 116.116 57.179 117.302 56.5287L114.419 51.2668ZM109.315 56.2043C108.06 58.3558 107.474 60.7767 107.474 63.375H113.474C113.474 61.7006 113.844 60.3487 114.498 59.2275L109.315 56.2043ZM107.474 63.375V93H113.474V63.375H107.474ZM110.474 90H95.9517V96H110.474V90ZM139.733 92.25L138.497 94.9835L138.507 94.988L138.517 94.9924L139.733 92.25ZM133.528 87.0341L131.01 88.6638L131.019 88.6782L131.028 88.6925L133.528 87.0341ZM132.881 71.0455L130.241 69.6195L130.241 69.6195L132.881 71.0455ZM137.244 66.2727L135.602 63.7624L135.602 63.7624L137.244 66.2727ZM143.517 63.5455L142.763 60.6417L142.756 60.6435L143.517 63.5455ZM150.949 62.25L151.237 65.2361L151.249 65.235L151.261 65.2338L150.949 62.25ZM158.312 61.3636L158.747 64.332L158.765 64.3294L158.782 64.3266L158.312 61.3636ZM162.369 60.0682L160.69 57.5824L160.69 57.5824L162.369 60.0682ZM161.585 52.3295L159.602 54.5802L159.611 54.5884L159.62 54.5966L161.585 52.3295ZM149.619 52.2955L151.396 54.7124L151.408 54.704L151.419 54.6955L149.619 52.2955ZM146.551 56.5909L146.308 59.5811L148.751 59.7795L149.433 57.4251L146.551 56.5909ZM133.119 55.5L130.186 54.8714L129.47 58.2135L132.876 58.4902L133.119 55.5ZM137.142 47.25L139.414 49.2097L139.418 49.2042L139.423 49.1987L137.142 47.25ZM144.881 41.8636L145.984 44.6532L145.995 44.6491L144.881 41.8636ZM164.278 40.9773L163.533 43.8833L163.539 43.8848L164.278 40.9773ZM171.403 44.1477L169.696 46.6143L169.702 46.6187L169.708 46.623L171.403 44.1477ZM176.347 49.6705L173.702 51.0864L173.708 51.0976L176.347 49.6705ZM178.153 93V96H181.153V93H178.153ZM164.381 93H161.381V96H164.381V93ZM164.381 85.7386H167.381V82.7386H164.381V85.7386ZM163.972 85.7386V82.7386H162.14L161.303 84.3674L163.972 85.7386ZM160.597 90.0682L162.567 92.3304L162.577 92.3215L162.587 92.3124L160.597 90.0682ZM155.517 92.9659L156.495 95.802L156.51 95.797L156.524 95.7919L155.517 92.9659ZM158.483 82.7045L159.854 85.3728L159.869 85.3653L159.883 85.3577L158.483 82.7045ZM162.335 79.2273L159.809 77.609L159.809 77.609L162.335 79.2273ZM163.733 68.7273H166.733V63.1992L162.098 66.2119L163.733 68.7273ZM161.858 69.5455L162.704 72.4236L162.731 72.4157L162.757 72.4074L161.858 69.5455ZM159.233 70.1932L159.782 73.1426L159.815 73.1364L159.848 73.1296L159.233 70.1932ZM156.301 70.7045L156.716 73.6758L156.75 73.671L156.783 73.6656L156.301 70.7045ZM153.642 71.0795L153.218 68.1097L153.207 68.1113L153.642 71.0795ZM149.176 72.2727L150.358 75.0302L150.358 75.0302L149.176 72.2727ZM146.21 74.4886L148.581 76.3264L148.592 76.3122L148.603 76.298L146.21 74.4886ZM147.301 82.4318L145.532 84.8547L145.554 84.8705L145.576 84.8859L147.301 82.4318ZM148.665 90.9886C145.673 90.9886 143.121 90.4706 140.949 89.5076L138.517 94.9924C141.572 96.3476 144.975 96.9886 148.665 96.9886V90.9886ZM140.969 89.5165C138.847 88.557 137.226 87.1811 136.028 85.3757L131.028 88.6925C132.876 91.478 135.392 93.5794 138.497 94.9835L140.969 89.5165ZM136.047 85.4043C134.932 83.6805 134.278 81.3962 134.278 78.375H128.278C128.278 82.2628 129.125 85.7513 131.01 88.6638L136.047 85.4043ZM134.278 78.375C134.278 75.8214 134.748 73.9004 135.52 72.4714L130.241 69.6195C128.877 72.145 128.278 75.1104 128.278 78.375H134.278ZM135.52 72.4714C136.357 70.923 137.473 69.7086 138.887 68.7831L135.602 63.7624C133.334 65.246 131.541 67.2134 130.241 69.6195L135.52 72.4714ZM138.887 68.7831C140.431 67.7726 142.219 66.9871 144.278 66.4474L142.756 60.6435C140.133 61.3311 137.739 62.3638 135.602 63.7624L138.887 68.7831ZM144.271 66.4492C146.472 65.8777 148.793 65.472 151.237 65.2361L150.661 59.2639C147.923 59.528 145.289 59.9859 142.763 60.6417L144.271 66.4492ZM151.261 65.2338C154.325 64.9136 156.825 64.6132 158.747 64.332L157.878 58.3953C156.072 58.6595 153.663 58.9501 150.637 59.2662L151.261 65.2338ZM158.782 64.3266C160.769 64.0116 162.652 63.4976 164.049 62.5539L160.69 57.5824C160.404 57.7752 159.583 58.1248 157.843 58.4006L158.782 64.3266ZM164.049 62.5539C165.806 61.3669 166.631 59.5414 166.631 57.5455H160.631C160.631 57.6355 160.622 57.6836 160.619 57.6986C160.616 57.712 160.618 57.6987 160.632 57.6697C160.639 57.656 160.647 57.6414 160.657 57.6267C160.667 57.6121 160.677 57.5998 160.686 57.59C160.704 57.5694 160.71 57.5685 160.69 57.5824L164.049 62.5539ZM166.631 57.5455V57.3409H160.631V57.5455H166.631ZM166.631 57.3409C166.631 54.4993 165.701 51.9264 163.55 50.0625L159.62 54.5966C160.197 55.0963 160.631 55.8644 160.631 57.3409H166.631ZM163.569 50.0789C161.5 48.2556 158.784 47.5568 155.858 47.5568V53.5568C157.887 53.5568 158.989 54.0398 159.602 54.5802L163.569 50.0789ZM155.858 47.5568C152.822 47.5568 150.04 48.23 147.819 49.8955L151.419 54.6955C152.29 54.0427 153.667 53.5568 155.858 53.5568V47.5568ZM147.842 49.8785C145.802 51.3785 144.366 53.3508 143.669 55.7567L149.433 57.4251C149.736 56.3765 150.346 55.4852 151.396 54.7124L147.842 49.8785ZM146.794 53.6008L133.362 52.5098L132.876 58.4902L146.308 59.5811L146.794 53.6008ZM136.053 56.1286C136.636 53.4071 137.763 51.1228 139.414 49.2097L134.871 45.2903C132.521 48.0136 130.966 51.2293 130.186 54.8714L136.053 56.1286ZM139.423 49.1987C141.073 47.2672 143.232 45.7421 145.984 44.6532L143.777 39.0741C140.211 40.4852 137.211 42.5509 134.861 45.3013L139.423 49.1987ZM145.995 44.6491C148.754 43.5455 152.044 42.9545 155.926 42.9545V36.9545C151.444 36.9545 147.371 37.6363 143.767 39.0782L145.995 44.6491ZM155.926 42.9545C158.599 42.9545 161.132 43.2675 163.533 43.8833L165.024 38.0713C162.107 37.3234 159.072 36.9545 155.926 36.9545V42.9545ZM163.539 43.8848C165.909 44.4873 167.95 45.4054 169.696 46.6143L173.111 41.6811C170.721 40.0264 168.011 38.8309 165.018 38.0698L163.539 43.8848ZM169.708 46.623C171.399 47.781 172.723 49.2574 173.702 51.0864L178.991 48.2545C177.561 45.5835 175.589 43.3781 173.098 41.6725L169.708 46.623ZM173.708 51.0976C174.627 52.7968 175.153 54.9534 175.153 57.6818H181.153C181.153 54.1829 180.476 50.9986 178.985 48.2433L173.708 51.0976ZM175.153 57.6818V93H181.153V57.6818H175.153ZM178.153 90H164.381V96H178.153V90ZM167.381 93V85.7386H161.381V93H167.381ZM164.381 82.7386H163.972V88.7386H164.381V82.7386ZM161.303 84.3674C160.636 85.6654 159.744 86.8145 158.606 87.824L162.587 92.3124C164.268 90.8219 165.625 89.0846 166.64 87.1098L161.303 84.3674ZM158.626 87.8059C157.533 88.7581 156.177 89.5459 154.51 90.1399L156.524 95.7919C158.811 94.9768 160.842 93.8328 162.567 92.3304L158.626 87.8059ZM154.539 90.1298C152.941 90.6807 150.999 90.9886 148.665 90.9886V96.9886C151.512 96.9886 154.138 96.6147 156.495 95.802L154.539 90.1298ZM152.824 86.9659C155.36 86.9659 157.73 86.4644 159.854 85.3728L157.112 80.0363C155.963 80.6265 154.56 80.9659 152.824 80.9659V86.9659ZM159.883 85.3577C161.944 84.2699 163.63 82.7675 164.861 80.8456L159.809 77.609C159.177 78.5961 158.294 79.4119 157.083 80.0514L159.883 85.3577ZM164.861 80.8456C166.123 78.8758 166.733 76.6592 166.733 74.2841H160.733C160.733 75.5908 160.411 76.6696 159.809 77.609L164.861 80.8456ZM166.733 74.2841V68.7273H160.733V74.2841H166.733ZM162.098 66.2119C161.959 66.302 161.618 66.4763 160.958 66.6835L162.757 72.4074C163.689 72.1146 164.597 71.7435 165.368 71.2426L162.098 66.2119ZM161.011 66.6674C160.331 66.8676 159.535 67.0649 158.618 67.2568L159.848 73.1296C160.885 72.9124 161.84 72.6779 162.704 72.4236L161.011 66.6674ZM158.684 67.2438C157.729 67.4215 156.774 67.5881 155.819 67.7435L156.783 73.6656C157.783 73.5028 158.782 73.3285 159.782 73.1426L158.684 67.2438ZM155.887 67.7333C154.907 67.87 154.017 67.9955 153.218 68.1097L154.066 74.0494C154.858 73.9363 155.741 73.8118 156.716 73.6758L155.887 67.7333ZM153.207 68.1113C151.305 68.3902 149.555 68.8463 147.994 69.5153L150.358 75.0302C151.342 74.6083 152.57 74.2689 154.077 74.0478L153.207 68.1113ZM147.994 69.5153C146.332 70.2279 144.89 71.2605 143.817 72.6793L148.603 76.298C148.94 75.8532 149.475 75.4084 150.358 75.0302L147.994 69.5153ZM143.839 72.6509C142.655 74.1788 142.153 75.9967 142.153 77.8977H148.153C148.153 77.0714 148.357 76.6166 148.581 76.3264L143.839 72.6509ZM142.153 77.8977C142.153 80.7052 143.229 83.1732 145.532 84.8547L149.07 80.0089C148.51 79.5995 148.153 79.0448 148.153 77.8977H142.153ZM145.576 84.8859C147.65 86.3447 150.136 86.9659 152.824 86.9659V80.9659C151.057 80.9659 149.861 80.5644 149.027 79.9777L145.576 84.8859ZM200.909 111.784L201.987 108.985L201.977 108.981L200.909 111.784ZM192.932 106.568L190.699 108.571L190.699 108.571L192.932 106.568ZM189.08 99.1364L188.68 96.1631L185.465 96.5955L186.146 99.7666L189.08 99.1364ZM202.511 97.3295L205.305 96.2363L204.447 94.0422L202.111 94.3563L202.511 97.3295ZM204.455 100.261L206.603 98.1671L206.603 98.1671L204.455 100.261ZM207.966 102.443L209.043 99.6431L209.031 99.6386L209.019 99.6342L207.966 102.443ZM221.159 100.977L219.38 98.5614L219.365 98.5725L219.351 98.5837L221.159 100.977ZM224.261 83.7273H227.261V80.7273H224.261V83.7273ZM223.648 83.7273V80.7273H221.686L220.899 82.5248L223.648 83.7273ZM220.784 87.8523L222.924 89.9547L222.924 89.9547L220.784 87.8523ZM197.977 89.5227L196.483 92.124L196.494 92.1303L196.505 92.1365L197.977 89.5227ZM190.307 81.1023L187.62 82.4375L187.625 82.4472L187.63 82.4568L190.307 81.1023ZM190.375 51.8523L187.676 50.5416L187.676 50.5416L190.375 51.8523ZM198.08 42.9205L196.512 40.3624L196.504 40.3673L198.08 42.9205ZM216.045 41.4545L214.692 44.1316L214.704 44.1379L214.716 44.144L216.045 41.4545ZM220.818 45.1364L218.493 47.0322L218.509 47.0517L218.525 47.071L220.818 45.1364ZM223.648 49.4318L220.93 50.7029L221.739 52.4318H223.648V49.4318ZM224.193 49.4318V52.4318H227.193V49.4318H224.193ZM224.193 40.6364V37.6364H221.193V40.6364H224.193ZM238.614 40.6364H241.614V37.6364H238.614V40.6364ZM235.341 104.693L232.915 102.929L232.915 102.929L235.341 104.693ZM226.273 111.443L225.187 108.647L225.177 108.65L225.167 108.654L226.273 111.443ZM219.25 79.6023L221 82.0388L221.006 82.0343L219.25 79.6023ZM223 74.5568L220.217 73.4377L220.214 73.4452L220.211 73.4527L223 74.5568ZM223.034 58.6705L220.23 59.7361L220.233 59.7455L223.034 58.6705ZM207.284 53.4545L209.126 55.8226L209.136 55.8147L209.146 55.8067L207.284 53.4545ZM203.568 58.7727L206.382 59.8138L206.382 59.8138L203.568 58.7727ZM203.568 74.4886L200.765 75.5578L200.772 75.5753L200.779 75.5928L203.568 74.4886ZM207.284 79.5682L205.49 81.9722L205.508 81.9864L205.528 82.0002L207.284 79.5682ZM213.011 110.727C208.569 110.727 204.92 110.114 201.987 108.985L199.831 114.584C203.626 116.045 208.045 116.727 213.011 116.727V110.727ZM201.977 108.981C198.991 107.843 196.764 106.347 195.165 104.565L190.699 108.571C193.055 111.198 196.145 113.18 199.841 114.588L201.977 108.981ZM195.165 104.565C193.518 102.728 192.488 100.718 192.013 98.5061L186.146 99.7666C186.853 103.055 188.392 105.999 190.699 108.571L195.165 104.565ZM189.479 102.11L202.911 100.303L202.111 94.3563L188.68 96.1631L189.479 102.11ZM199.718 98.4227C200.291 99.8876 201.177 101.197 202.307 102.356L206.603 98.1671C205.96 97.5077 205.55 96.8624 205.305 96.2363L199.718 98.4227ZM202.307 102.356C203.562 103.643 205.135 104.586 206.913 105.252L209.019 99.6342C207.887 99.2097 207.12 98.6978 206.603 98.1671L202.307 102.356ZM206.889 105.243C208.804 105.98 210.987 106.295 213.352 106.295V100.295C211.491 100.295 210.083 100.043 209.043 99.6431L206.889 105.243ZM213.352 106.295C217.009 106.295 220.29 105.394 222.968 103.371L219.351 98.5837C217.937 99.6516 216.013 100.295 213.352 100.295V106.295ZM222.938 103.393C226.051 101.101 227.261 97.4454 227.261 93.3068H221.261C221.261 96.3501 220.404 97.808 219.38 98.5614L222.938 103.393ZM227.261 93.3068V83.7273H221.261V93.3068H227.261ZM224.261 80.7273H223.648V86.7273H224.261V80.7273ZM220.899 82.5248C220.429 83.6003 219.697 84.6778 218.644 85.7498L222.924 89.9547C224.416 88.4359 225.594 86.7633 226.396 84.9297L220.899 82.5248ZM218.644 85.7498C217.706 86.705 216.432 87.5533 214.739 88.2461L217.011 93.7994C219.318 92.8557 221.317 91.5905 222.924 89.9547L218.644 85.7498ZM214.739 88.2461C213.186 88.8815 211.205 89.25 208.716 89.25V95.25C211.773 95.25 214.564 94.8003 217.011 93.7994L214.739 88.2461ZM208.716 89.25C205.267 89.25 202.2 88.4583 199.45 86.909L196.505 92.1365C200.209 94.2235 204.301 95.25 208.716 95.25V89.25ZM199.472 86.9214C196.845 85.4123 194.668 83.0758 192.984 79.7477L187.63 82.4568C189.764 86.6742 192.701 89.9514 196.483 92.124L199.472 86.9214ZM192.993 79.7671C191.375 76.5101 190.477 72.2093 190.477 66.7159H184.477C184.477 72.8134 185.466 78.1035 187.62 82.4375L192.993 79.7671ZM190.477 66.7159C190.477 61.0905 191.396 56.617 193.074 53.163L187.676 50.5416C185.491 55.0421 184.477 60.4777 184.477 66.7159H190.477ZM193.074 53.163C194.801 49.6073 197.014 47.1028 199.655 45.4736L196.504 40.3673C192.736 42.6926 189.813 46.1427 187.676 50.5416L193.074 53.163ZM199.647 45.4785C202.395 43.7947 205.385 42.9545 208.682 42.9545V36.9545C204.296 36.9545 200.219 38.0916 196.512 40.3624L199.647 45.4785ZM208.682 42.9545C211.289 42.9545 213.247 43.4012 214.692 44.1316L217.399 38.7774C214.889 37.5079 211.938 36.9545 208.682 36.9545V42.9545ZM214.716 44.144C216.369 44.9607 217.599 45.936 218.493 47.0322L223.143 43.2405C221.628 41.3822 219.677 39.9029 217.375 38.7651L214.716 44.144ZM218.525 47.071C219.619 48.3671 220.405 49.5789 220.93 50.7029L226.365 48.1608C225.573 46.4666 224.472 44.8148 223.111 43.2018L218.525 47.071ZM223.648 52.4318H224.193V46.4318H223.648V52.4318ZM227.193 49.4318V40.6364H221.193V49.4318H227.193ZM224.193 43.6364H238.614V37.6364H224.193V43.6364ZM235.614 40.6364V93.5114H241.614V40.6364H235.614ZM235.614 93.5114C235.614 97.4623 234.654 100.538 232.915 102.929L237.767 106.458C240.392 102.849 241.614 98.4695 241.614 93.5114H235.614ZM232.915 102.929C231.11 105.41 228.579 107.33 225.187 108.647L227.358 114.24C231.694 112.557 235.208 109.977 237.767 106.458L232.915 102.929ZM225.167 108.654C221.744 110.012 217.71 110.727 213.011 110.727V116.727C218.312 116.727 223.12 115.92 227.378 114.232L225.167 108.654ZM213.318 84.3409C216.172 84.3409 218.79 83.6262 221 82.0388L217.5 77.1657C216.482 77.8965 215.146 78.3409 213.318 78.3409V84.3409ZM221.006 82.0343C223.178 80.4659 224.75 78.2866 225.789 75.661L220.211 73.4527C219.523 75.1906 218.595 76.375 217.494 77.1702L221.006 82.0343ZM225.783 75.6759C226.848 73.0286 227.33 69.9928 227.33 66.6477H221.33C221.33 69.439 220.925 71.676 220.217 73.4377L225.783 75.6759ZM227.33 66.6477C227.33 63.308 226.861 60.268 225.835 57.5954L220.233 59.7455C220.935 61.5729 221.33 63.8511 221.33 66.6477H227.33ZM225.838 57.6048C224.813 54.9052 223.261 52.6488 221.105 51.0023L217.463 55.7704C218.58 56.6239 219.528 57.8902 220.23 59.7361L225.838 57.6048ZM221.105 51.0023C218.875 49.2991 216.223 48.5114 213.318 48.5114V54.5114C215.095 54.5114 216.42 54.9736 217.463 55.7704L221.105 51.0023ZM213.318 48.5114C210.358 48.5114 207.663 49.3283 205.422 51.1024L209.146 55.8067C210.178 54.9899 211.506 54.5114 213.318 54.5114V48.5114ZM205.442 51.0865C203.295 52.7569 201.756 55.0247 200.755 57.7317L206.382 59.8138C207.062 57.9753 208.001 56.6977 209.126 55.8226L205.442 51.0865ZM200.755 57.7317C199.766 60.4041 199.307 63.3936 199.307 66.6477H205.307C205.307 63.9473 205.689 61.6868 206.382 59.8138L200.755 57.7317ZM199.307 66.6477C199.307 69.9379 199.763 72.9309 200.765 75.5578L206.371 73.4194C205.691 71.6373 205.307 69.403 205.307 66.6477H199.307ZM200.779 75.5928C201.813 78.2049 203.361 80.3832 205.49 81.9722L209.079 77.1641C207.98 76.3441 207.051 75.136 206.358 73.3845L200.779 75.5928ZM205.528 82.0002C207.763 83.6149 210.419 84.3409 213.318 84.3409V78.3409C211.444 78.3409 210.078 77.8851 209.041 77.1361L205.528 82.0002ZM250.17 93H247.17V96H250.17V93ZM250.17 40.6364V37.6364H247.17V40.6364H250.17ZM264.011 40.6364H267.011V37.6364H264.011V40.6364ZM264.011 49.875H261.011V52.875H264.011V49.875ZM264.625 49.875V52.875H266.742L267.452 50.88L264.625 49.875ZM270.08 42.6136L268.365 40.1518L268.365 40.1518L270.08 42.6136ZM288.386 42.6477L286.647 45.0919L286.654 45.0971L286.662 45.1023L288.386 42.6477ZM293.432 49.875L290.54 50.6735L291.148 52.875H293.432V49.875ZM293.977 49.875V52.875H296.094L296.803 50.8813L293.977 49.875ZM299.773 42.6818L301.394 45.206L301.399 45.2027L299.773 42.6818ZM321.659 44.625L319.514 46.7227L319.522 46.7306L319.53 46.7385L321.659 44.625ZM326.261 93V96H329.261V93H326.261ZM311.773 93H308.773V96H311.773V93ZM309.455 54.1023L307.398 56.2869L307.398 56.2869L309.455 54.1023ZM297.489 54.4432L299.729 56.4382L299.736 56.4306L299.743 56.423L297.489 54.4432ZM295.273 93V96H298.273V93H295.273ZM281.193 93H278.193V96H281.193V93ZM278.977 54.2045L276.808 56.2767L276.816 56.2851L276.824 56.2935L278.977 54.2045ZM268.852 53.1477L270.442 55.6917L270.448 55.688L270.454 55.6842L268.852 53.1477ZM265.818 56.5227L268.476 57.9147L268.48 57.9062L268.485 57.8976L265.818 56.5227ZM264.693 93V96H267.693V93H264.693ZM253.17 93V40.6364H247.17V93H253.17ZM250.17 43.6364H264.011V37.6364H250.17V43.6364ZM261.011 40.6364V49.875H267.011V40.6364H261.011ZM264.011 52.875H264.625V46.875H264.011V52.875ZM267.452 50.88C268.344 48.3704 269.789 46.472 271.794 45.0755L268.365 40.1518C265.279 42.3007 263.088 45.2433 261.798 48.87L267.452 50.88ZM271.794 45.0755C273.767 43.7016 276.193 42.9545 279.216 42.9545V36.9545C275.148 36.9545 271.483 37.9802 268.365 40.1518L271.794 45.0755ZM279.216 42.9545C282.286 42.9545 284.71 43.7134 286.647 45.0919L290.126 40.2036C287.017 37.9912 283.327 36.9545 279.216 36.9545V42.9545ZM286.662 45.1023C288.6 46.4644 289.879 48.2806 290.54 50.6735L296.324 49.0765C295.302 45.3784 293.218 42.3765 290.111 40.1931L286.662 45.1023ZM293.432 52.875H293.977V46.875H293.432V52.875ZM296.803 50.8813C297.639 48.5351 299.131 46.6594 301.394 45.206L298.151 40.1576C294.824 42.2951 292.452 45.2149 291.151 48.8687L296.803 50.8813ZM301.399 45.2027C303.665 43.7408 306.411 42.9545 309.761 42.9545V36.9545C305.43 36.9545 301.517 37.9864 298.146 40.1609L301.399 45.2027ZM309.761 42.9545C313.948 42.9545 317.105 44.2589 319.514 46.7227L323.804 42.5273C320.123 38.7638 315.347 36.9545 309.761 36.9545V42.9545ZM319.53 46.7385C321.886 49.1115 323.261 52.6433 323.261 57.7841H329.261C329.261 51.5613 327.569 46.3203 323.788 42.5115L319.53 46.7385ZM323.261 57.7841V93H329.261V57.7841H323.261ZM326.261 90H311.773V96H326.261V90ZM314.773 93V60.6477H308.773V93H314.773ZM314.773 60.6477C314.773 57.2281 313.856 54.1247 311.511 51.9177L307.398 56.2869C308.144 56.9889 308.773 58.2491 308.773 60.6477H314.773ZM311.511 51.9177C309.355 49.8889 306.665 48.9205 303.659 48.9205V54.9205C305.29 54.9205 306.463 55.4065 307.398 56.2869L311.511 51.9177ZM303.659 48.9205C300.328 48.9205 297.384 50.0163 295.235 52.4634L299.743 56.423C300.548 55.5064 301.717 54.9205 303.659 54.9205V48.9205ZM295.248 52.4482C293.177 54.7746 292.273 57.7347 292.273 61.0227H298.273C298.273 58.8562 298.846 57.4299 299.729 56.4382L295.248 52.4482ZM292.273 61.0227V93H298.273V61.0227H292.273ZM295.273 90H281.193V96H295.273V90ZM284.193 93V60.3409H278.193V93H284.193ZM284.193 60.3409C284.193 57.1672 283.261 54.3119 281.13 52.1156L276.824 56.2935C277.648 57.1426 278.193 58.3782 278.193 60.3409H284.193ZM281.147 52.1323C279.048 49.9357 276.302 48.9205 273.216 48.9205V54.9205C274.903 54.9205 275.997 55.428 276.808 56.2767L281.147 52.1323ZM273.216 48.9205C271.067 48.9205 269.051 49.4738 267.25 50.6113L270.454 55.6842C271.244 55.1853 272.138 54.9205 273.216 54.9205V48.9205ZM267.262 50.6037C265.491 51.7106 264.126 53.2587 263.152 55.1479L268.485 57.8976C269.01 56.8777 269.668 56.1758 270.442 55.6917L267.262 50.6037ZM263.161 55.1307C262.146 57.0683 261.693 59.2456 261.693 61.5682H267.693C267.693 60.0271 267.991 58.8408 268.476 57.9147L263.161 55.1307ZM261.693 61.5682V93H267.693V61.5682H261.693ZM264.693 90H250.17V96H264.693V90ZM337.733 93H334.733V96H337.733V93ZM337.733 40.6364V37.6364H334.733V40.6364H337.733ZM352.256 40.6364H355.256V37.6364H352.256V40.6364ZM352.256 93V96H355.256V93H352.256ZM339.472 31.7386L337.399 33.908L337.416 33.9238L337.433 33.9393L339.472 31.7386ZM339.472 21.375L341.527 23.5606L341.528 23.5596L339.472 21.375ZM350.551 21.375L348.479 23.5443L348.495 23.5601L348.512 23.5757L350.551 21.375ZM350.551 31.7386L352.606 33.9242L352.607 33.9232L350.551 31.7386ZM340.733 93V40.6364H334.733V93H340.733ZM337.733 43.6364H352.256V37.6364H337.733V43.6364ZM349.256 40.6364V93H355.256V40.6364H349.256ZM352.256 90H337.733V96H352.256V90ZM345.028 30.8864C343.605 30.8864 342.486 30.442 341.51 29.5379L337.433 33.9393C339.548 35.8989 342.134 36.8864 345.028 36.8864V30.8864ZM341.544 29.5693C340.586 28.6547 340.188 27.6889 340.188 26.5227H334.188C334.188 29.402 335.311 31.9135 337.399 33.908L341.544 29.5693ZM340.188 26.5227C340.188 25.3915 340.576 24.4542 341.527 23.5606L337.417 19.1894C335.321 21.1595 334.188 23.654 334.188 26.5227H340.188ZM341.528 23.5596C342.506 22.6388 343.619 22.1932 345.028 22.1932V16.1932C342.12 16.1932 339.528 17.2021 337.415 19.1904L341.528 23.5596ZM345.028 22.1932C346.437 22.1932 347.53 22.6378 348.479 23.5443L352.623 19.2057C350.527 17.2031 347.938 16.1932 345.028 16.1932V22.1932ZM348.512 23.5757C349.482 24.4739 349.869 25.407 349.869 26.5227H355.869C355.869 23.6384 354.711 21.1398 352.59 19.1743L348.512 23.5757ZM349.869 26.5227C349.869 27.6736 349.471 28.635 348.495 29.554L352.607 33.9232C354.722 31.9331 355.869 29.4173 355.869 26.5227H349.869ZM348.496 29.5531C347.55 30.4429 346.452 30.8864 345.028 30.8864V36.8864C347.923 36.8864 350.507 35.898 352.606 33.9242L348.496 29.5531ZM378.003 23.1818L380.585 21.6541L379.714 20.1818H378.003V23.1818ZM392.082 46.9773L389.5 48.505L390.372 49.9773H392.082V46.9773ZM392.628 46.9773V49.9773H394.334L395.206 48.5104L392.628 46.9773ZM406.776 23.1818V20.1818H405.069L404.197 21.6487L406.776 23.1818ZM423.446 23.1818L426.007 24.7447L428.792 20.1818H423.446V23.1818ZM402.139 58.0909L399.578 56.528L398.614 58.1084L399.594 59.6791L402.139 58.0909ZM423.923 93V96H429.332L426.468 91.4118L423.923 93ZM406.946 93L404.375 94.5451L405.249 96H406.946V93ZM392.628 69.1705L395.199 67.6253L394.325 66.1705H392.628V69.1705ZM392.082 69.1705V66.1705H390.385L389.511 67.6253L392.082 69.1705ZM377.764 93V96H379.462L380.336 94.5451L377.764 93ZM360.855 93L358.312 91.4082L355.438 96H360.855V93ZM382.707 58.0909L385.25 59.6827L386.237 58.1058L385.264 56.5207L382.707 58.0909ZM361.264 23.1818V20.1818H355.901L358.708 24.752L361.264 23.1818ZM375.421 24.7095L389.5 48.505L394.664 45.4496L380.585 21.6541L375.421 24.7095ZM392.082 49.9773H392.628V43.9773H392.082V49.9773ZM395.206 48.5104L409.354 24.715L404.197 21.6487L390.049 45.4441L395.206 48.5104ZM406.776 26.1818H423.446V20.1818H406.776V26.1818ZM420.885 21.6189L399.578 56.528L404.7 59.6538L426.007 24.7447L420.885 21.6189ZM399.594 59.6791L421.378 94.5882L426.468 91.4118L404.684 56.5027L399.594 59.6791ZM423.923 90H406.946V96H423.923V90ZM409.518 91.4549L395.199 67.6253L390.056 70.7156L404.375 94.5451L409.518 91.4549ZM392.628 66.1705H392.082V72.1705H392.628V66.1705ZM389.511 67.6253L375.193 91.4549L380.336 94.5451L394.654 70.7156L389.511 67.6253ZM377.764 90H360.855V96H377.764V90ZM363.398 94.5918L385.25 59.6827L380.165 56.4991L358.312 91.4082L363.398 94.5918ZM385.264 56.5207L363.82 21.6116L358.708 24.752L380.151 59.6611L385.264 56.5207ZM361.264 26.1818H378.003V20.1818H361.264V26.1818Z" fill="black" mask="url(#path-1-outside-1_2_60)"/>
    </svg>
    