<svg width="398" height="103" viewBox="0 0 398 103" fill="none" xmlns="http://www.w3.org/2000/svg">
    <g filter="url(#filter0_d_1_3)">
    <mask id="path-1-outside-1_1_3" maskUnits="userSpaceOnUse" x="3" y="-1" width="393" height="97" fill="black">
    <rect fill="white" x="3" y="-1" width="393" height="97"/>
    <path d="M4.06818 74V4.18182H31.6136C36.9091 4.18182 41.4205 5.19318 45.1477 7.21591C48.875 9.21591 51.7159 12 53.6705 15.5682C55.6477 19.1136 56.6364 23.2045 56.6364 27.8409C56.6364 32.4773 55.6364 36.5682 53.6364 40.1136C51.6364 43.6591 48.7386 46.4205 44.9432 48.3977C41.1705 50.375 36.6023 51.3636 31.2386 51.3636H13.6818V39.5341H28.8523C31.6932 39.5341 34.0341 39.0455 35.875 38.0682C37.7386 37.0682 39.125 35.6932 40.0341 33.9432C40.9659 32.1705 41.4318 30.1364 41.4318 27.8409C41.4318 25.5227 40.9659 23.5 40.0341 21.7727C39.125 20.0227 37.7386 18.6705 35.875 17.7159C34.0114 16.7386 31.6477 16.25 28.7841 16.25H18.8295V74H4.06818ZM65.9517 74V21.6364H80.0312V30.7727H80.5767C81.5313 27.5227 83.1335 25.0682 85.3835 23.4091C87.6335 21.7273 90.2244 20.8864 93.1562 20.8864C93.8835 20.8864 94.6676 20.9318 95.5085 21.0227C96.3494 21.1136 97.0881 21.2386 97.7244 21.3977V34.2841C97.0426 34.0795 96.0994 33.8977 94.8949 33.7386C93.6903 33.5795 92.5881 33.5 91.5881 33.5C89.4517 33.5 87.5426 33.9659 85.8608 34.8977C84.2017 35.8068 82.8835 37.0795 81.9062 38.7159C80.9517 40.3523 80.4744 42.2386 80.4744 44.375V74H65.9517ZM118.665 74.9886C115.324 74.9886 112.347 74.4091 109.733 73.25C107.119 72.0682 105.051 70.3295 103.528 68.0341C102.028 65.7159 101.278 62.8295 101.278 59.375C101.278 56.4659 101.813 54.0227 102.881 52.0455C103.949 50.0682 105.403 48.4773 107.244 47.2727C109.085 46.0682 111.176 45.1591 113.517 44.5455C115.881 43.9318 118.358 43.5 120.949 43.25C123.994 42.9318 126.449 42.6364 128.312 42.3636C130.176 42.0682 131.528 41.6364 132.369 41.0682C133.21 40.5 133.631 39.6591 133.631 38.5455V38.3409C133.631 36.1818 132.949 34.5114 131.585 33.3295C130.244 32.1477 128.335 31.5568 125.858 31.5568C123.244 31.5568 121.165 32.1364 119.619 33.2955C118.074 34.4318 117.051 35.8636 116.551 37.5909L103.119 36.5C103.801 33.3182 105.142 30.5682 107.142 28.25C109.142 25.9091 111.722 24.1136 114.881 22.8636C118.063 21.5909 121.744 20.9545 125.926 20.9545C128.835 20.9545 131.619 21.2955 134.278 21.9773C136.96 22.6591 139.335 23.7159 141.403 25.1477C143.494 26.5795 145.142 28.4205 146.347 30.6705C147.551 32.8977 148.153 35.5682 148.153 38.6818V74H134.381V66.7386H133.972C133.131 68.375 132.006 69.8182 130.597 71.0682C129.188 72.2955 127.494 73.2614 125.517 73.9659C123.54 74.6477 121.256 74.9886 118.665 74.9886ZM122.824 64.9659C124.96 64.9659 126.847 64.5455 128.483 63.7045C130.119 62.8409 131.403 61.6818 132.335 60.2273C133.267 58.7727 133.733 57.125 133.733 55.2841V49.7273C133.278 50.0227 132.653 50.2955 131.858 50.5455C131.085 50.7727 130.21 50.9886 129.233 51.1932C128.256 51.375 127.278 51.5455 126.301 51.7045C125.324 51.8409 124.438 51.9659 123.642 52.0795C121.938 52.3295 120.449 52.7273 119.176 53.2727C117.903 53.8182 116.915 54.5568 116.21 55.4886C115.506 56.3977 115.153 57.5341 115.153 58.8977C115.153 60.875 115.869 62.3864 117.301 63.4318C118.756 64.4545 120.597 64.9659 122.824 64.9659ZM183.011 94.7273C178.307 94.7273 174.273 94.0795 170.909 92.7841C167.568 91.5114 164.909 89.7727 162.932 87.5682C160.955 85.3636 159.67 82.8864 159.08 80.1364L172.511 78.3295C172.92 79.375 173.568 80.3523 174.455 81.2614C175.341 82.1705 176.511 82.8977 177.966 83.4432C179.443 84.0114 181.239 84.2955 183.352 84.2955C186.511 84.2955 189.114 83.5227 191.159 81.9773C193.227 80.4545 194.261 77.8977 194.261 74.3068V64.7273H193.648C193.011 66.1818 192.057 67.5568 190.784 68.8523C189.511 70.1477 187.875 71.2045 185.875 72.0227C183.875 72.8409 181.489 73.25 178.716 73.25C174.784 73.25 171.205 72.3409 167.977 70.5227C164.773 68.6818 162.216 65.875 160.307 62.1023C158.42 58.3068 157.477 53.5114 157.477 47.7159C157.477 41.7841 158.443 36.8295 160.375 32.8523C162.307 28.875 164.875 25.8977 168.08 23.9205C171.307 21.9432 174.841 20.9545 178.682 20.9545C181.614 20.9545 184.068 21.4545 186.045 22.4545C188.023 23.4318 189.614 24.6591 190.818 26.1364C192.045 27.5909 192.989 29.0227 193.648 30.4318H194.193V21.6364H208.614V74.5114C208.614 78.9659 207.523 82.6932 205.341 85.6932C203.159 88.6932 200.136 90.9432 196.273 92.4432C192.432 93.9659 188.011 94.7273 183.011 94.7273ZM183.318 62.3409C185.659 62.3409 187.636 61.7614 189.25 60.6023C190.886 59.4205 192.136 57.7386 193 55.5568C193.886 53.3523 194.33 50.7159 194.33 47.6477C194.33 44.5795 193.898 41.9205 193.034 39.6705C192.17 37.3977 190.92 35.6364 189.284 34.3864C187.648 33.1364 185.659 32.5114 183.318 32.5114C180.932 32.5114 178.92 33.1591 177.284 34.4545C175.648 35.7273 174.409 37.5 173.568 39.7727C172.727 42.0455 172.307 44.6705 172.307 47.6477C172.307 50.6705 172.727 53.2841 173.568 55.4886C174.432 57.6705 175.67 59.3636 177.284 60.5682C178.92 61.75 180.932 62.3409 183.318 62.3409ZM220.17 74V21.6364H234.011V30.875H234.625C235.716 27.8068 237.534 25.3864 240.08 23.6136C242.625 21.8409 245.67 20.9545 249.216 20.9545C252.807 20.9545 255.864 21.8523 258.386 23.6477C260.909 25.4205 262.591 27.8295 263.432 30.875H263.977C265.045 27.875 266.977 25.4773 269.773 23.6818C272.591 21.8636 275.92 20.9545 279.761 20.9545C284.648 20.9545 288.614 22.5114 291.659 25.625C294.727 28.7159 296.261 33.1023 296.261 38.7841V74H281.773V41.6477C281.773 38.7386 281 36.5568 279.455 35.1023C277.909 33.6477 275.977 32.9205 273.659 32.9205C271.023 32.9205 268.966 33.7614 267.489 35.4432C266.011 37.1023 265.273 39.2955 265.273 42.0227V74H251.193V41.3409C251.193 38.7727 250.455 36.7273 248.977 35.2045C247.523 33.6818 245.602 32.9205 243.216 32.9205C241.602 32.9205 240.148 33.3295 238.852 34.1477C237.58 34.9432 236.568 36.0682 235.818 37.5227C235.068 38.9545 234.693 40.6364 234.693 42.5682V74H220.17ZM307.733 74V21.6364H322.256V74H307.733ZM315.028 14.8864C312.869 14.8864 311.017 14.1705 309.472 12.7386C307.949 11.2841 307.188 9.54545 307.188 7.52272C307.188 5.52272 307.949 3.80682 309.472 2.375C311.017 0.920452 312.869 0.193178 315.028 0.193178C317.188 0.193178 319.028 0.920452 320.551 2.375C322.097 3.80682 322.869 5.52272 322.869 7.52272C322.869 9.54545 322.097 11.2841 320.551 12.7386C319.028 14.1705 317.188 14.8864 315.028 14.8864ZM348.003 4.18182L362.082 27.9773H362.628L376.776 4.18182H393.446L372.139 39.0909L393.923 74H376.946L362.628 50.1705H362.082L347.764 74H330.855L352.707 39.0909L331.264 4.18182H348.003Z"/>
    </mask>
    <path d="M4.06818 74V4.18182H31.6136C36.9091 4.18182 41.4205 5.19318 45.1477 7.21591C48.875 9.21591 51.7159 12 53.6705 15.5682C55.6477 19.1136 56.6364 23.2045 56.6364 27.8409C56.6364 32.4773 55.6364 36.5682 53.6364 40.1136C51.6364 43.6591 48.7386 46.4205 44.9432 48.3977C41.1705 50.375 36.6023 51.3636 31.2386 51.3636H13.6818V39.5341H28.8523C31.6932 39.5341 34.0341 39.0455 35.875 38.0682C37.7386 37.0682 39.125 35.6932 40.0341 33.9432C40.9659 32.1705 41.4318 30.1364 41.4318 27.8409C41.4318 25.5227 40.9659 23.5 40.0341 21.7727C39.125 20.0227 37.7386 18.6705 35.875 17.7159C34.0114 16.7386 31.6477 16.25 28.7841 16.25H18.8295V74H4.06818ZM65.9517 74V21.6364H80.0312V30.7727H80.5767C81.5313 27.5227 83.1335 25.0682 85.3835 23.4091C87.6335 21.7273 90.2244 20.8864 93.1562 20.8864C93.8835 20.8864 94.6676 20.9318 95.5085 21.0227C96.3494 21.1136 97.0881 21.2386 97.7244 21.3977V34.2841C97.0426 34.0795 96.0994 33.8977 94.8949 33.7386C93.6903 33.5795 92.5881 33.5 91.5881 33.5C89.4517 33.5 87.5426 33.9659 85.8608 34.8977C84.2017 35.8068 82.8835 37.0795 81.9062 38.7159C80.9517 40.3523 80.4744 42.2386 80.4744 44.375V74H65.9517ZM118.665 74.9886C115.324 74.9886 112.347 74.4091 109.733 73.25C107.119 72.0682 105.051 70.3295 103.528 68.0341C102.028 65.7159 101.278 62.8295 101.278 59.375C101.278 56.4659 101.813 54.0227 102.881 52.0455C103.949 50.0682 105.403 48.4773 107.244 47.2727C109.085 46.0682 111.176 45.1591 113.517 44.5455C115.881 43.9318 118.358 43.5 120.949 43.25C123.994 42.9318 126.449 42.6364 128.312 42.3636C130.176 42.0682 131.528 41.6364 132.369 41.0682C133.21 40.5 133.631 39.6591 133.631 38.5455V38.3409C133.631 36.1818 132.949 34.5114 131.585 33.3295C130.244 32.1477 128.335 31.5568 125.858 31.5568C123.244 31.5568 121.165 32.1364 119.619 33.2955C118.074 34.4318 117.051 35.8636 116.551 37.5909L103.119 36.5C103.801 33.3182 105.142 30.5682 107.142 28.25C109.142 25.9091 111.722 24.1136 114.881 22.8636C118.063 21.5909 121.744 20.9545 125.926 20.9545C128.835 20.9545 131.619 21.2955 134.278 21.9773C136.96 22.6591 139.335 23.7159 141.403 25.1477C143.494 26.5795 145.142 28.4205 146.347 30.6705C147.551 32.8977 148.153 35.5682 148.153 38.6818V74H134.381V66.7386H133.972C133.131 68.375 132.006 69.8182 130.597 71.0682C129.188 72.2955 127.494 73.2614 125.517 73.9659C123.54 74.6477 121.256 74.9886 118.665 74.9886ZM122.824 64.9659C124.96 64.9659 126.847 64.5455 128.483 63.7045C130.119 62.8409 131.403 61.6818 132.335 60.2273C133.267 58.7727 133.733 57.125 133.733 55.2841V49.7273C133.278 50.0227 132.653 50.2955 131.858 50.5455C131.085 50.7727 130.21 50.9886 129.233 51.1932C128.256 51.375 127.278 51.5455 126.301 51.7045C125.324 51.8409 124.438 51.9659 123.642 52.0795C121.938 52.3295 120.449 52.7273 119.176 53.2727C117.903 53.8182 116.915 54.5568 116.21 55.4886C115.506 56.3977 115.153 57.5341 115.153 58.8977C115.153 60.875 115.869 62.3864 117.301 63.4318C118.756 64.4545 120.597 64.9659 122.824 64.9659ZM183.011 94.7273C178.307 94.7273 174.273 94.0795 170.909 92.7841C167.568 91.5114 164.909 89.7727 162.932 87.5682C160.955 85.3636 159.67 82.8864 159.08 80.1364L172.511 78.3295C172.92 79.375 173.568 80.3523 174.455 81.2614C175.341 82.1705 176.511 82.8977 177.966 83.4432C179.443 84.0114 181.239 84.2955 183.352 84.2955C186.511 84.2955 189.114 83.5227 191.159 81.9773C193.227 80.4545 194.261 77.8977 194.261 74.3068V64.7273H193.648C193.011 66.1818 192.057 67.5568 190.784 68.8523C189.511 70.1477 187.875 71.2045 185.875 72.0227C183.875 72.8409 181.489 73.25 178.716 73.25C174.784 73.25 171.205 72.3409 167.977 70.5227C164.773 68.6818 162.216 65.875 160.307 62.1023C158.42 58.3068 157.477 53.5114 157.477 47.7159C157.477 41.7841 158.443 36.8295 160.375 32.8523C162.307 28.875 164.875 25.8977 168.08 23.9205C171.307 21.9432 174.841 20.9545 178.682 20.9545C181.614 20.9545 184.068 21.4545 186.045 22.4545C188.023 23.4318 189.614 24.6591 190.818 26.1364C192.045 27.5909 192.989 29.0227 193.648 30.4318H194.193V21.6364H208.614V74.5114C208.614 78.9659 207.523 82.6932 205.341 85.6932C203.159 88.6932 200.136 90.9432 196.273 92.4432C192.432 93.9659 188.011 94.7273 183.011 94.7273ZM183.318 62.3409C185.659 62.3409 187.636 61.7614 189.25 60.6023C190.886 59.4205 192.136 57.7386 193 55.5568C193.886 53.3523 194.33 50.7159 194.33 47.6477C194.33 44.5795 193.898 41.9205 193.034 39.6705C192.17 37.3977 190.92 35.6364 189.284 34.3864C187.648 33.1364 185.659 32.5114 183.318 32.5114C180.932 32.5114 178.92 33.1591 177.284 34.4545C175.648 35.7273 174.409 37.5 173.568 39.7727C172.727 42.0455 172.307 44.6705 172.307 47.6477C172.307 50.6705 172.727 53.2841 173.568 55.4886C174.432 57.6705 175.67 59.3636 177.284 60.5682C178.92 61.75 180.932 62.3409 183.318 62.3409ZM220.17 74V21.6364H234.011V30.875H234.625C235.716 27.8068 237.534 25.3864 240.08 23.6136C242.625 21.8409 245.67 20.9545 249.216 20.9545C252.807 20.9545 255.864 21.8523 258.386 23.6477C260.909 25.4205 262.591 27.8295 263.432 30.875H263.977C265.045 27.875 266.977 25.4773 269.773 23.6818C272.591 21.8636 275.92 20.9545 279.761 20.9545C284.648 20.9545 288.614 22.5114 291.659 25.625C294.727 28.7159 296.261 33.1023 296.261 38.7841V74H281.773V41.6477C281.773 38.7386 281 36.5568 279.455 35.1023C277.909 33.6477 275.977 32.9205 273.659 32.9205C271.023 32.9205 268.966 33.7614 267.489 35.4432C266.011 37.1023 265.273 39.2955 265.273 42.0227V74H251.193V41.3409C251.193 38.7727 250.455 36.7273 248.977 35.2045C247.523 33.6818 245.602 32.9205 243.216 32.9205C241.602 32.9205 240.148 33.3295 238.852 34.1477C237.58 34.9432 236.568 36.0682 235.818 37.5227C235.068 38.9545 234.693 40.6364 234.693 42.5682V74H220.17ZM307.733 74V21.6364H322.256V74H307.733ZM315.028 14.8864C312.869 14.8864 311.017 14.1705 309.472 12.7386C307.949 11.2841 307.188 9.54545 307.188 7.52272C307.188 5.52272 307.949 3.80682 309.472 2.375C311.017 0.920452 312.869 0.193178 315.028 0.193178C317.188 0.193178 319.028 0.920452 320.551 2.375C322.097 3.80682 322.869 5.52272 322.869 7.52272C322.869 9.54545 322.097 11.2841 320.551 12.7386C319.028 14.1705 317.188 14.8864 315.028 14.8864ZM348.003 4.18182L362.082 27.9773H362.628L376.776 4.18182H393.446L372.139 39.0909L393.923 74H376.946L362.628 50.1705H362.082L347.764 74H330.855L352.707 39.0909L331.264 4.18182H348.003Z" fill="black"/>
    <path d="M4.06818 74H3.06818V75H4.06818V74ZM4.06818 4.18182V3.18182H3.06818V4.18182H4.06818ZM45.1477 7.21591L44.6708 8.09484L44.6749 8.09707L45.1477 7.21591ZM53.6705 15.5682L52.7934 16.0486L52.7971 16.0552L53.6705 15.5682ZM44.9432 48.3977L44.4812 47.5109L44.479 47.512L44.9432 48.3977ZM13.6818 51.3636H12.6818V52.3636H13.6818V51.3636ZM13.6818 39.5341V38.5341H12.6818V39.5341H13.6818ZM35.875 38.0682L36.3439 38.9514L36.3478 38.9493L35.875 38.0682ZM40.0341 33.9432L39.1489 33.4779L39.1467 33.4822L40.0341 33.9432ZM40.0341 21.7727L39.1467 22.2337L39.1503 22.2406L39.154 22.2475L40.0341 21.7727ZM35.875 17.7159L35.4106 18.6016L35.4191 18.606L35.875 17.7159ZM18.8295 16.25V15.25H17.8295V16.25H18.8295ZM18.8295 74V75H19.8295V74H18.8295ZM5.06818 74V4.18182H3.06818V74H5.06818ZM4.06818 5.18182H31.6136V3.18182H4.06818V5.18182ZM31.6136 5.18182C36.7832 5.18182 41.122 6.16896 44.6708 8.09483L45.6247 6.33699C41.7189 4.2174 37.0349 3.18182 31.6136 3.18182V5.18182ZM44.6749 8.09707C48.2386 10.0093 50.9358 12.6573 52.7934 16.0486L54.5475 15.0878C52.4961 11.3427 49.5114 8.42251 45.6205 6.33475L44.6749 8.09707ZM52.7971 16.0552C54.6801 19.4317 55.6364 23.3505 55.6364 27.8409H57.6364C57.6364 23.0586 56.6153 18.7955 54.5438 15.0811L52.7971 16.0552ZM55.6364 27.8409C55.6364 32.3294 54.6696 36.2466 52.7654 39.6223L54.5073 40.605C56.6031 36.8897 57.6364 32.6251 57.6364 27.8409H55.6364ZM52.7654 39.6223C50.8655 42.9902 48.1141 45.6182 44.4812 47.5109L45.4052 49.2846C49.3631 47.2227 52.4072 44.328 54.5073 40.605L52.7654 39.6223ZM44.479 47.512C40.8818 49.3972 36.4816 50.3636 31.2386 50.3636V52.3636C36.723 52.3636 41.4591 51.3528 45.4074 49.2835L44.479 47.512ZM31.2386 50.3636H13.6818V52.3636H31.2386V50.3636ZM14.6818 51.3636V39.5341H12.6818V51.3636H14.6818ZM13.6818 40.5341H28.8523V38.5341H13.6818V40.5341ZM28.8523 40.5341C31.8001 40.5341 34.3158 40.0281 36.3439 38.9514L35.4061 37.1849C33.7524 38.0628 31.5862 38.5341 28.8523 38.5341V40.5341ZM36.3478 38.9493C38.3753 37.8614 39.9128 36.3459 40.9215 34.4042L39.1467 33.4822C38.3372 35.0405 37.102 36.2749 35.4022 37.187L36.3478 38.9493ZM40.9193 34.4085C41.9369 32.4725 42.4318 30.2746 42.4318 27.8409H40.4318C40.4318 29.9981 39.9949 31.8684 39.1489 33.4779L40.9193 34.4085ZM42.4318 27.8409C42.4318 25.387 41.9378 23.1954 40.9142 21.2979L39.154 22.2475C39.994 23.8046 40.4318 25.6584 40.4318 27.8409H42.4318ZM40.9215 21.3117C39.9105 19.3657 38.3673 17.8689 36.3309 16.8259L35.4191 18.606C37.1099 19.472 38.3395 20.6798 39.1467 22.2337L40.9215 21.3117ZM36.3394 16.8303C34.2903 15.7557 31.7539 15.25 28.7841 15.25V17.25C31.5416 17.25 33.7325 17.7215 35.4106 18.6015L36.3394 16.8303ZM28.7841 15.25H18.8295V17.25H28.7841V15.25ZM17.8295 16.25V74H19.8295V16.25H17.8295ZM18.8295 73H4.06818V75H18.8295V73ZM65.9517 74H64.9517V75H65.9517V74ZM65.9517 21.6364V20.6364H64.9517V21.6364H65.9517ZM80.0312 21.6364H81.0312V20.6364H80.0312V21.6364ZM80.0312 30.7727H79.0312V31.7727H80.0312V30.7727ZM80.5767 30.7727V31.7727H81.3252L81.5362 31.0545L80.5767 30.7727ZM85.3835 23.4091L85.977 24.214L85.9822 24.2101L85.3835 23.4091ZM95.5085 21.0227L95.616 20.0285L95.616 20.0285L95.5085 21.0227ZM97.7244 21.3977H98.7244V20.6169L97.967 20.4276L97.7244 21.3977ZM97.7244 34.2841L97.4371 35.2419L98.7244 35.6281V34.2841H97.7244ZM85.8608 34.8977L86.3413 35.7747L86.3454 35.7724L85.8608 34.8977ZM81.9062 38.7159L81.0477 38.2031L81.0425 38.212L81.9062 38.7159ZM80.4744 74V75H81.4744V74H80.4744ZM66.9517 74V21.6364H64.9517V74H66.9517ZM65.9517 22.6364H80.0312V20.6364H65.9517V22.6364ZM79.0312 21.6364V30.7727H81.0312V21.6364H79.0312ZM80.0312 31.7727H80.5767V29.7727H80.0312V31.7727ZM81.5362 31.0545C82.4425 27.9686 83.9376 25.7177 85.977 24.2139L84.79 22.6042C82.3294 24.4186 80.62 27.0768 79.6172 30.4909L81.5362 31.0545ZM85.9822 24.2101C88.0515 22.6634 90.4302 21.8864 93.1562 21.8864V19.8864C90.0187 19.8864 87.2156 20.7912 84.7848 22.6081L85.9822 24.2101ZM93.1562 21.8864C93.8424 21.8864 94.5902 21.9293 95.401 22.0169L95.616 20.0285C94.745 19.9344 93.9246 19.8864 93.1562 19.8864V21.8864ZM95.401 22.0169C96.2087 22.1042 96.9005 22.2225 97.4819 22.3679L97.967 20.4276C97.2756 20.2548 96.4902 20.123 95.616 20.0285L95.401 22.0169ZM96.7244 21.3977V34.2841H98.7244V21.3977H96.7244ZM98.0118 33.3263C97.2555 33.0994 96.2519 32.9092 95.0258 32.7472L94.764 34.73C95.947 34.8863 96.8298 35.0597 97.4371 35.2419L98.0118 33.3263ZM95.0258 32.7472C93.7867 32.5836 92.64 32.5 91.5881 32.5V34.5C92.5362 34.5 93.5939 34.5755 94.764 34.73L95.0258 32.7472ZM91.5881 32.5C89.3014 32.5 87.2222 33.0002 85.3762 34.023L86.3454 35.7724C87.863 34.9316 89.602 34.5 91.5881 34.5V32.5ZM85.3803 34.0208C83.5638 35.0161 82.1156 36.4151 81.0477 38.2032L82.7648 39.2286C83.6515 37.744 84.8397 36.5975 86.3413 35.7747L85.3803 34.0208ZM81.0425 38.212C79.9878 40.0201 79.4744 42.0847 79.4744 44.375H81.4744C81.4744 42.3926 81.9156 40.6844 82.77 39.2198L81.0425 38.212ZM79.4744 44.375V74H81.4744V44.375H79.4744ZM80.4744 73H65.9517V75H80.4744V73ZM109.733 73.25L109.321 74.1612L109.328 74.1641L109.733 73.25ZM103.528 68.0341L102.689 68.5774L102.695 68.5869L103.528 68.0341ZM102.881 52.0455L102.001 51.5701L102.001 51.5701L102.881 52.0455ZM107.244 47.2727L106.697 46.4359L106.697 46.4359L107.244 47.2727ZM113.517 44.5455L113.266 43.5775L113.263 43.5781L113.517 44.5455ZM120.949 43.25L121.045 44.2454L121.053 44.2446L120.949 43.25ZM128.312 42.3636L128.457 43.3532L128.469 43.3513L128.312 42.3636ZM132.369 41.0682L131.809 40.2396L131.809 40.2396L132.369 41.0682ZM131.585 33.3295L130.924 34.0798L130.93 34.0852L131.585 33.3295ZM119.619 33.2955L120.212 34.1011L120.219 34.0955L119.619 33.2955ZM116.551 37.5909L116.47 38.5876L117.285 38.6538L117.512 37.869L116.551 37.5909ZM103.119 36.5L102.142 36.2905L101.903 37.4045L103.038 37.4967L103.119 36.5ZM107.142 28.25L107.899 28.9032L107.902 28.8996L107.142 28.25ZM114.881 22.8636L115.249 23.7935L115.252 23.7921L114.881 22.8636ZM134.278 21.9773L134.03 22.9459L134.032 22.9464L134.278 21.9773ZM141.403 25.1477L140.834 25.9699L140.838 25.9728L141.403 25.1477ZM146.347 30.6705L145.465 31.1424L145.467 31.1462L146.347 30.6705ZM148.153 74V75H149.153V74H148.153ZM134.381 74H133.381V75H134.381V74ZM134.381 66.7386H135.381V65.7386H134.381V66.7386ZM133.972 66.7386V65.7386H133.361L133.082 66.2816L133.972 66.7386ZM130.597 71.0682L131.253 71.8223L131.26 71.8163L130.597 71.0682ZM125.517 73.9659L125.843 74.9113L125.853 74.9079L125.517 73.9659ZM128.483 63.7045L128.94 64.594L128.95 64.5889L128.483 63.7045ZM132.335 60.2273L131.493 59.6878L131.493 59.6878L132.335 60.2273ZM133.733 49.7273H134.733V47.8846L133.188 48.8888L133.733 49.7273ZM131.858 50.5455L132.14 51.5048L132.149 51.5022L132.158 51.4994L131.858 50.5455ZM129.233 51.1932L129.416 52.1763L129.427 52.1743L129.438 52.172L129.233 51.1932ZM126.301 51.7045L126.439 52.6949L126.451 52.6934L126.462 52.6916L126.301 51.7045ZM123.642 52.0795L123.501 51.0896L123.497 51.0901L123.642 52.0795ZM119.176 53.2727L119.57 54.1919L119.57 54.1919L119.176 53.2727ZM116.21 55.4886L117.001 56.1013L117.008 56.0917L116.21 55.4886ZM117.301 63.4318L116.711 64.2394L116.719 64.2447L116.726 64.2498L117.301 63.4318ZM118.665 73.9886C115.44 73.9886 112.605 73.4296 110.138 72.3359L109.328 74.1641C112.089 75.3886 115.208 75.9886 118.665 75.9886V73.9886ZM110.145 72.3388C107.695 71.2311 105.776 69.6134 104.362 67.4813L102.695 68.5869C104.326 71.0457 106.543 72.9052 109.321 74.1612L110.145 72.3388ZM104.368 67.4908C102.996 65.3708 102.278 62.6851 102.278 59.375H100.278C100.278 62.974 101.061 66.061 102.689 68.5773L104.368 67.4908ZM102.278 59.375C102.278 56.5844 102.791 54.3153 103.761 52.5208L102.001 51.5701C100.834 53.7302 100.278 56.3474 100.278 59.375H102.278ZM103.761 52.5208C104.751 50.6864 106.093 49.221 107.792 48.1095L106.697 46.4359C104.714 47.7335 103.146 49.4499 102.001 51.5701L103.761 52.5208ZM107.792 48.1095C109.534 46.9697 111.524 46.1018 113.771 45.5128L113.263 43.5781C110.829 44.2164 108.637 45.1667 106.697 46.4359L107.792 48.1095ZM113.768 45.5134C116.078 44.9138 118.503 44.4907 121.045 44.2454L120.853 42.2546C118.213 42.5093 115.684 42.9498 113.266 43.5775L113.768 45.5134ZM121.053 44.2446C124.105 43.9257 126.574 43.6286 128.457 43.3531L128.168 41.3742C126.323 41.6441 123.884 41.9379 120.845 42.2554L121.053 44.2446ZM128.469 43.3513C130.374 43.0493 131.903 42.5901 132.929 41.8968L131.809 40.2396C131.154 40.6826 129.978 41.087 128.156 41.376L128.469 43.3513ZM132.929 41.8968C134.075 41.1223 134.631 39.9532 134.631 38.5455H132.631C132.631 39.365 132.345 39.8777 131.809 40.2396L132.929 41.8968ZM134.631 38.5455V38.3409H132.631V38.5455H134.631ZM134.631 38.3409C134.631 35.9543 133.866 33.983 132.24 32.5739L130.93 34.0852C132.032 35.0397 132.631 36.4093 132.631 38.3409H134.631ZM132.246 32.5793C130.663 31.1837 128.485 30.5568 125.858 30.5568V32.5568C128.186 32.5568 129.826 33.1118 130.924 34.0798L132.246 32.5793ZM125.858 30.5568C123.103 30.5568 120.79 31.1676 119.019 32.4955L120.219 34.0955C121.54 33.1051 123.385 32.5568 125.858 32.5568V30.5568ZM119.027 32.4898C117.317 33.7474 116.156 35.3594 115.591 37.3128L117.512 37.869C117.946 36.3679 118.831 35.1163 120.212 34.1011L119.027 32.4898ZM116.632 36.5942L103.2 35.5033L103.038 37.4967L116.47 38.5876L116.632 36.5942ZM104.097 36.7095C104.746 33.6811 106.016 31.0864 107.899 28.9032L106.385 27.5968C104.268 30.05 102.856 32.9552 102.142 36.2905L104.097 36.7095ZM107.902 28.8996C109.786 26.6951 112.225 24.9898 115.249 23.7935L114.513 21.9338C111.218 23.2375 108.498 25.123 106.382 27.6004L107.902 28.8996ZM115.252 23.7921C118.293 22.5758 121.844 21.9545 125.926 21.9545V19.9545C121.644 19.9545 117.832 20.606 114.509 21.9352L115.252 23.7921ZM125.926 21.9545C128.756 21.9545 131.457 22.2861 134.03 22.9459L134.527 21.0086C131.782 20.3048 128.914 19.9545 125.926 19.9545V21.9545ZM134.032 22.9464C136.61 23.6018 138.873 24.6124 140.834 25.9699L141.973 24.3255C139.797 22.8194 137.311 21.7164 134.525 21.0081L134.032 22.9464ZM140.838 25.9728C142.796 27.3133 144.336 29.0328 145.465 31.1424L147.228 30.1985C145.949 27.8081 144.193 25.8457 141.968 24.3226L140.838 25.9728ZM145.467 31.1462C146.576 33.1974 147.153 35.6966 147.153 38.6818H149.153C149.153 35.4398 148.526 32.598 147.226 30.1947L145.467 31.1462ZM147.153 38.6818V74H149.153V38.6818H147.153ZM148.153 73H134.381V75H148.153V73ZM135.381 74V66.7386H133.381V74H135.381ZM134.381 65.7386H133.972V67.7386H134.381V65.7386ZM133.082 66.2816C132.299 67.8051 131.252 69.1503 129.933 70.3201L131.26 71.8163C132.76 70.4861 133.962 68.9449 134.861 67.1957L133.082 66.2816ZM129.94 70.3141C128.636 71.4497 127.055 72.3562 125.181 73.0239L125.853 74.9079C127.933 74.1665 129.739 73.1412 131.253 71.8223L129.94 70.3141ZM125.191 73.0205C123.34 73.6587 121.17 73.9886 118.665 73.9886V75.9886C121.341 75.9886 123.739 75.6367 125.843 74.9113L125.191 73.0205ZM122.824 65.9659C125.094 65.9659 127.141 65.5184 128.94 64.594L128.026 62.8151C126.552 63.5725 124.827 63.9659 122.824 63.9659V65.9659ZM128.95 64.5889C130.728 63.6506 132.146 62.377 133.177 60.7667L131.493 59.6878C130.661 60.9866 129.511 62.0312 128.016 62.8202L128.95 64.5889ZM133.177 60.7667C134.219 59.1404 134.733 57.3031 134.733 55.2841H132.733C132.733 56.9469 132.315 58.405 131.493 59.6878L133.177 60.7667ZM134.733 55.2841V49.7273H132.733V55.2841H134.733ZM133.188 48.8888C132.839 49.1158 132.308 49.3557 131.558 49.5915L132.158 51.4994C132.999 51.2352 133.718 50.9296 134.278 50.5657L133.188 48.8888ZM131.576 49.5861C130.834 49.8043 129.985 50.0141 129.028 50.2144L129.438 52.172C130.435 51.9632 131.337 51.7411 132.14 51.5048L131.576 49.5861ZM129.05 50.2101C128.08 50.3905 127.11 50.5597 126.14 50.7175L126.462 52.6916C127.447 52.5312 128.431 52.3595 129.416 52.1763L129.05 50.2101ZM126.163 50.7141C125.185 50.8506 124.297 50.9758 123.501 51.0896L123.783 53.0695C124.578 52.956 125.463 52.8312 126.439 52.6949L126.163 50.7141ZM123.497 51.0901C121.727 51.3498 120.151 51.7669 118.782 52.3536L119.57 54.1919C120.747 53.6876 122.148 53.3093 123.787 53.069L123.497 51.0901ZM118.782 52.3536C117.379 52.9548 116.24 53.7914 115.413 54.8855L117.008 56.0917C117.59 55.3223 118.427 54.6816 119.57 54.1919L118.782 52.3536ZM115.42 54.8761C114.555 55.9914 114.153 57.355 114.153 58.8977H116.153C116.153 57.7132 116.456 56.804 117.001 56.1012L115.42 54.8761ZM114.153 58.8977C114.153 61.1517 114.989 62.982 116.711 64.2394L117.891 62.6242C116.749 61.7908 116.153 60.5983 116.153 58.8977H114.153ZM116.726 64.2498C118.387 65.4179 120.443 65.9659 122.824 65.9659V63.9659C120.75 63.9659 119.124 63.4912 117.876 62.6138L116.726 64.2498ZM170.909 92.7841L171.268 91.8509L171.265 91.8496L170.909 92.7841ZM162.932 87.5682L162.187 88.2359L162.187 88.2359L162.932 87.5682ZM159.08 80.1364L158.946 79.1453L157.875 79.2894L158.102 80.3464L159.08 80.1364ZM172.511 78.3295L173.443 77.9651L173.156 77.2338L172.378 77.3385L172.511 78.3295ZM174.455 81.2614L175.171 80.5633L175.171 80.5633L174.455 81.2614ZM177.966 83.4432L178.325 82.5098L178.317 82.5069L177.966 83.4432ZM191.159 81.9773L190.566 81.1719L190.556 81.1794L191.159 81.9773ZM194.261 64.7273H195.261V63.7273H194.261V64.7273ZM193.648 64.7273V63.7273H192.994L192.732 64.3265L193.648 64.7273ZM190.784 68.8523L191.497 69.5531L191.497 69.5531L190.784 68.8523ZM167.977 70.5227L167.479 71.3899L167.486 71.394L167.977 70.5227ZM160.307 62.1023L159.411 62.5474L159.415 62.5538L160.307 62.1023ZM160.375 32.8523L159.475 32.4154L159.475 32.4154L160.375 32.8523ZM168.08 23.9205L167.557 23.0678L167.554 23.0694L168.08 23.9205ZM186.045 22.4545L185.594 23.347L185.602 23.351L186.045 22.4545ZM190.818 26.1364L190.043 26.7683L190.048 26.7748L190.054 26.7812L190.818 26.1364ZM193.648 30.4318L192.742 30.8555L193.011 31.4318H193.648V30.4318ZM194.193 30.4318V31.4318H195.193V30.4318H194.193ZM194.193 21.6364V20.6364H193.193V21.6364H194.193ZM208.614 21.6364H209.614V20.6364H208.614V21.6364ZM205.341 85.6932L204.532 85.105L204.532 85.105L205.341 85.6932ZM196.273 92.4432L195.911 91.5109L195.904 91.5136L196.273 92.4432ZM189.25 60.6023L189.833 61.4145L189.835 61.413L189.25 60.6023ZM193 55.5568L192.072 55.1838L192.07 55.1888L193 55.5568ZM193.034 39.6705L192.099 40.0257L192.101 40.0288L193.034 39.6705ZM177.284 34.4545L177.898 35.2439L177.905 35.2386L177.284 34.4545ZM173.568 39.7727L174.506 40.1197L174.506 40.1197L173.568 39.7727ZM173.568 55.4886L172.634 55.8451L172.638 55.8567L173.568 55.4886ZM177.284 60.5682L176.686 61.3695L176.692 61.3742L176.699 61.3789L177.284 60.5682ZM183.011 93.7273C178.394 93.7273 174.488 93.091 171.268 91.8509L170.55 93.7173C174.057 95.0681 178.22 95.7273 183.011 95.7273V93.7273ZM171.265 91.8496C168.043 90.622 165.527 88.9643 163.676 86.9005L162.187 88.2359C164.291 90.5812 167.094 92.4008 170.553 93.7186L171.265 91.8496ZM163.676 86.9005C161.809 84.8185 160.61 82.4969 160.057 79.9263L158.102 80.3464C158.731 83.2758 160.1 85.9088 162.187 88.2359L163.676 86.9005ZM159.213 81.1274L172.645 79.3206L172.378 77.3385L158.946 79.1453L159.213 81.1274ZM171.58 78.6939C172.044 79.8792 172.771 80.9671 173.739 81.9595L175.171 80.5633C174.365 79.7374 173.797 78.8708 173.443 77.9651L171.58 78.6939ZM173.739 81.9595C174.748 82.9947 176.053 83.7937 177.615 84.3795L178.317 82.5069C176.97 82.0017 175.934 81.3462 175.171 80.5633L173.739 81.9595ZM177.607 84.3765C179.23 85.0008 181.155 85.2955 183.352 85.2955V83.2955C181.323 83.2955 179.656 83.0219 178.325 82.5098L177.607 84.3765ZM183.352 85.2955C186.677 85.2955 189.506 84.4798 191.762 82.7751L190.556 81.1794C188.721 82.5657 186.345 83.2955 183.352 83.2955V85.2955ZM191.752 82.7826C194.168 81.0034 195.261 78.0803 195.261 74.3068H193.261C193.261 77.7152 192.286 79.9057 190.566 81.172L191.752 82.7826ZM195.261 74.3068V64.7273H193.261V74.3068H195.261ZM194.261 63.7273H193.648V65.7273H194.261V63.7273ZM192.732 64.3265C192.15 65.6547 191.27 66.9305 190.071 68.1515L191.497 69.5531C192.843 68.1832 193.872 66.709 194.564 65.1281L192.732 64.3265ZM190.071 68.1515C188.909 69.3335 187.394 70.3208 185.496 71.0972L186.254 72.9483C188.356 72.0883 190.113 70.962 191.497 69.5531L190.071 68.1515ZM185.496 71.0972C183.645 71.8544 181.394 72.25 178.716 72.25V74.25C181.583 74.25 184.105 73.8274 186.254 72.9483L185.496 71.0972ZM178.716 72.25C174.945 72.25 171.536 71.38 168.468 69.6515L167.486 71.394C170.873 73.3018 174.623 74.25 178.716 74.25V72.25ZM168.475 69.6556C165.463 67.9253 163.033 65.2753 161.199 61.6508L159.415 62.5538C161.399 66.4747 164.082 69.4383 167.479 71.3898L168.475 69.6556ZM161.202 61.6572C159.405 58.0412 158.477 53.4107 158.477 47.7159H156.477C156.477 53.6121 157.436 58.5724 159.411 62.5473L161.202 61.6572ZM158.477 47.7159C158.477 41.8862 159.427 37.092 161.275 33.2892L159.475 32.4154C157.459 36.567 156.477 41.6819 156.477 47.7159H158.477ZM161.275 33.2892C163.138 29.4524 165.588 26.6328 168.605 24.7715L167.554 23.0694C164.162 25.1627 161.476 28.2976 159.475 32.4154L161.275 33.2892ZM168.602 24.7731C171.67 22.8937 175.022 21.9545 178.682 21.9545V19.9545C174.659 19.9545 170.944 20.9927 167.557 23.0678L168.602 24.7731ZM178.682 21.9545C181.505 21.9545 183.795 22.4368 185.594 23.3469L186.497 21.5622C184.342 20.4723 181.722 19.9545 178.682 19.9545V21.9545ZM185.602 23.351C187.471 24.2748 188.942 25.4181 190.043 26.7683L191.593 25.5044C190.285 23.9001 188.574 22.5888 186.489 21.5581L185.602 23.351ZM190.054 26.7812C191.237 28.183 192.127 29.5414 192.742 30.8555L194.554 30.0081C193.85 28.504 192.854 26.9989 191.582 25.4915L190.054 26.7812ZM193.648 31.4318H194.193V29.4318H193.648V31.4318ZM195.193 30.4318V21.6364H193.193V30.4318H195.193ZM194.193 22.6364H208.614V20.6364H194.193V22.6364ZM207.614 21.6364V74.5114H209.614V21.6364H207.614ZM207.614 74.5114C207.614 78.7981 206.566 82.308 204.532 85.105L206.15 86.2814C208.479 83.0783 209.614 79.1338 209.614 74.5114H207.614ZM204.532 85.105C202.476 87.9321 199.617 90.072 195.911 91.511L196.635 93.3754C200.655 91.8144 203.842 89.4543 206.15 86.2814L204.532 85.105ZM195.904 91.5136C192.202 92.9811 187.911 93.7273 183.011 93.7273V95.7273C188.112 95.7273 192.661 94.9507 196.641 93.3728L195.904 91.5136ZM183.318 63.3409C185.83 63.3409 188.021 62.7163 189.833 61.4145L188.667 59.7901C187.252 60.8064 185.488 61.3409 183.318 61.3409V63.3409ZM189.835 61.413C191.65 60.1023 193.008 58.2546 193.93 55.9249L192.07 55.1888C191.265 57.2226 190.122 58.7386 188.665 59.7916L189.835 61.413ZM193.928 55.9299C194.874 53.5777 195.33 50.8082 195.33 47.6477H193.33C193.33 50.6236 192.899 53.1268 192.072 55.1838L193.928 55.9299ZM195.33 47.6477C195.33 44.489 194.885 41.703 193.968 39.3121L192.101 40.0288C192.91 42.1379 193.33 44.6701 193.33 47.6477H195.33ZM193.969 39.3152C193.051 36.9002 191.7 34.9738 189.891 33.5917L188.677 35.181C190.14 36.2989 191.29 37.8952 192.099 40.0257L193.969 39.3152ZM189.891 33.5917C188.057 32.1906 185.847 31.5114 183.318 31.5114V33.5114C185.471 33.5114 187.238 34.0821 188.677 35.181L189.891 33.5917ZM183.318 31.5114C180.74 31.5114 178.501 32.2155 176.663 33.6705L177.905 35.2386C179.34 34.1027 181.123 33.5114 183.318 33.5114V31.5114ZM176.67 33.6652C174.863 35.0705 173.525 37.0082 172.63 39.4257L174.506 40.1197C175.293 37.9918 176.432 36.3841 177.898 35.2439L176.67 33.6652ZM172.63 39.4257C171.74 41.8317 171.307 44.5782 171.307 47.6477H173.307C173.307 44.7627 173.714 42.2593 174.506 40.1197L172.63 39.4257ZM171.307 47.6477C171.307 50.7596 171.739 53.4997 172.634 55.845L174.503 55.1322C173.715 53.0685 173.307 50.5813 173.307 47.6477H171.307ZM172.638 55.8567C173.559 58.1819 174.901 60.0368 176.686 61.3695L177.882 59.7668C176.44 58.6904 175.305 57.159 174.498 55.1206L172.638 55.8567ZM176.699 61.3789C178.535 62.705 180.761 63.3409 183.318 63.3409V61.3409C181.103 61.3409 179.306 60.795 177.87 59.7575L176.699 61.3789ZM220.17 74H219.17V75H220.17V74ZM220.17 21.6364V20.6364H219.17V21.6364H220.17ZM234.011 21.6364H235.011V20.6364H234.011V21.6364ZM234.011 30.875H233.011V31.875H234.011V30.875ZM234.625 30.875V31.875H235.331L235.567 31.21L234.625 30.875ZM240.08 23.6136L239.508 22.793L239.508 22.793L240.08 23.6136ZM258.386 23.6477L257.807 24.4625L257.811 24.4659L258.386 23.6477ZM263.432 30.875L262.468 31.1412L262.671 31.875H263.432V30.875ZM263.977 30.875V31.875H264.683L264.919 31.2104L263.977 30.875ZM269.773 23.6818L270.313 24.5232L270.315 24.5221L269.773 23.6818ZM291.659 25.625L290.944 26.3243L290.949 26.3295L291.659 25.625ZM296.261 74V75H297.261V74H296.261ZM281.773 74H280.773V75H281.773V74ZM279.455 35.1023L278.769 35.8305L278.769 35.8305L279.455 35.1023ZM267.489 35.4432L268.235 36.1082L268.24 36.1031L267.489 35.4432ZM265.273 74V75H266.273V74H265.273ZM251.193 74H250.193V75H251.193V74ZM248.977 35.2045L248.254 35.8953L248.26 35.9009L248.977 35.2045ZM238.852 34.1477L239.382 34.9957L239.386 34.9932L238.852 34.1477ZM235.818 37.5227L236.704 37.9867L236.707 37.981L235.818 37.5227ZM234.693 74V75H235.693V74H234.693ZM221.17 74V21.6364H219.17V74H221.17ZM220.17 22.6364H234.011V20.6364H220.17V22.6364ZM233.011 21.6364V30.875H235.011V21.6364H233.011ZM234.011 31.875H234.625V29.875H234.011V31.875ZM235.567 31.21C236.592 28.328 238.286 26.0816 240.651 24.4342L239.508 22.793C236.783 24.6911 234.84 27.2856 233.683 30.54L235.567 31.21ZM240.651 24.4342C243.006 22.7945 245.845 21.9545 249.216 21.9545V19.9545C245.496 19.9545 242.244 20.8873 239.508 22.793L240.651 24.4342ZM249.216 21.9545C252.633 21.9545 255.479 22.806 257.807 24.4624L258.966 22.833C256.248 20.8986 252.98 19.9545 249.216 19.9545V21.9545ZM257.811 24.4659C260.139 26.1018 261.687 28.3132 262.468 31.1412L264.396 30.6088C263.495 27.3458 261.679 24.7391 258.961 22.8295L257.811 24.4659ZM263.432 31.875H263.977V29.875H263.432V31.875ZM264.919 31.2104C265.91 28.4284 267.695 26.2047 270.313 24.5232L269.232 22.8404C266.259 24.7499 264.181 27.3216 263.035 30.5396L264.919 31.2104ZM270.315 24.5221C272.949 22.8227 276.084 21.9545 279.761 21.9545V19.9545C275.757 19.9545 272.233 20.9046 269.231 22.8415L270.315 24.5221ZM279.761 21.9545C284.415 21.9545 288.111 23.4272 290.944 26.3242L292.374 24.9258C289.117 21.5955 284.881 19.9545 279.761 19.9545V21.9545ZM290.949 26.3295C293.78 29.1811 295.261 33.2826 295.261 38.7841H297.261C297.261 32.9219 295.675 28.2507 292.369 24.9205L290.949 26.3295ZM295.261 38.7841V74H297.261V38.7841H295.261ZM296.261 73H281.773V75H296.261V73ZM282.773 74V41.6477H280.773V74H282.773ZM282.773 41.6477C282.773 38.5685 281.952 36.0795 280.14 34.3741L278.769 35.8305C280.048 37.0342 280.773 38.9088 280.773 41.6477H282.773ZM280.14 34.3741C278.391 32.7281 276.206 31.9205 273.659 31.9205V33.9205C275.748 33.9205 277.427 34.5673 278.769 35.8305L280.14 34.3741ZM273.659 31.9205C270.791 31.9205 268.439 32.8463 266.737 34.7832L268.24 36.1031C269.493 34.6764 271.254 33.9205 273.659 33.9205V31.9205ZM266.742 34.7782C265.066 36.6597 264.273 39.1085 264.273 42.0227H266.273C266.273 39.4824 266.956 37.5448 268.235 36.1082L266.742 34.7782ZM264.273 42.0227V74H266.273V42.0227H264.273ZM265.273 73H251.193V75H265.273V73ZM252.193 74V41.3409H250.193V74H252.193ZM252.193 41.3409C252.193 38.5709 251.39 36.2555 249.695 34.5082L248.26 35.9009C249.519 37.1991 250.193 38.9746 250.193 41.3409H252.193ZM249.7 34.5138C248.031 32.7664 245.836 31.9205 243.216 31.9205V33.9205C245.369 33.9205 247.014 34.5972 248.254 35.8953L249.7 34.5138ZM243.216 31.9205C241.424 31.9205 239.782 32.3776 238.318 33.3022L239.386 34.9932C240.513 34.2815 241.781 33.9205 243.216 33.9205V31.9205ZM238.322 33.2997C236.883 34.199 235.754 35.465 234.929 37.0644L236.707 37.981C237.382 36.6714 238.276 35.6874 239.382 34.9957L238.322 33.2997ZM234.932 37.0587C234.094 38.6591 233.693 40.5061 233.693 42.5682H235.693C235.693 40.7666 236.042 39.25 236.704 37.9867L234.932 37.0587ZM233.693 42.5682V74H235.693V42.5682H233.693ZM234.693 73H220.17V75H234.693V73ZM307.733 74H306.733V75H307.733V74ZM307.733 21.6364V20.6364H306.733V21.6364H307.733ZM322.256 21.6364H323.256V20.6364H322.256V21.6364ZM322.256 74V75H323.256V74H322.256ZM309.472 12.7386L308.781 13.4617L308.786 13.467L308.792 13.4722L309.472 12.7386ZM309.472 2.375L310.157 3.10352L310.157 3.1032L309.472 2.375ZM320.551 2.375L319.86 3.09811L319.866 3.10338L319.872 3.10856L320.551 2.375ZM320.551 12.7386L321.236 13.4672L321.237 13.4668L320.551 12.7386ZM308.733 74V21.6364H306.733V74H308.733ZM307.733 22.6364H322.256V20.6364H307.733V22.6364ZM321.256 21.6364V74H323.256V21.6364H321.256ZM322.256 73H307.733V75H322.256V73ZM315.028 13.8864C313.114 13.8864 311.507 13.261 310.151 12.0051L308.792 13.4722C310.527 15.0799 312.624 15.8864 315.028 15.8864V13.8864ZM310.162 12.0155C308.828 10.741 308.188 9.25994 308.188 7.52272H306.188C306.188 9.83097 307.07 11.8272 308.781 13.4617L310.162 12.0155ZM308.188 7.52272C308.188 5.81231 308.825 4.35593 310.157 3.10352L308.787 1.64648C307.073 3.2577 306.188 5.23314 306.188 7.52272H308.188ZM310.157 3.1032C311.513 1.82657 313.119 1.19318 315.028 1.19318V-0.806822C312.619 -0.806822 310.521 0.0143301 308.786 1.6468L310.157 3.1032ZM315.028 1.19318C316.937 1.19318 318.529 1.82622 319.86 3.09811L321.242 1.65189C319.528 0.014684 317.438 -0.806822 315.028 -0.806822V1.19318ZM319.872 3.10856C321.225 4.3625 321.869 5.81749 321.869 7.52272H323.869C323.869 5.22796 322.968 3.25113 321.231 1.64144L319.872 3.10856ZM321.869 7.52272C321.869 9.25483 321.222 10.7344 319.866 12.0104L321.237 13.4668C322.972 11.8338 323.869 9.83608 323.869 7.52272H321.869ZM319.866 12.0101C318.536 13.2613 316.942 13.8864 315.028 13.8864V15.8864C317.433 15.8864 319.521 15.0796 321.236 13.4672L319.866 12.0101ZM348.003 4.18182L348.863 3.67259L348.573 3.18182H348.003V4.18182ZM362.082 27.9773L361.222 28.4865L361.512 28.9773H362.082V27.9773ZM362.628 27.9773V28.9773H363.197L363.487 28.4883L362.628 27.9773ZM376.776 4.18182V3.18182H376.207L375.916 3.67077L376.776 4.18182ZM393.446 4.18182L394.3 4.70279L395.228 3.18182H393.446V4.18182ZM372.139 39.0909L371.286 38.5699L370.964 39.0967L371.291 39.6203L372.139 39.0909ZM393.923 74V75H395.726L394.772 73.4706L393.923 74ZM376.946 74L376.089 74.515L376.38 75H376.946V74ZM362.628 50.1705L363.485 49.6554L363.194 49.1705H362.628V50.1705ZM362.082 50.1705V49.1705H361.517L361.225 49.6554L362.082 50.1705ZM347.764 74V75H348.33L348.621 74.515L347.764 74ZM330.855 74L330.007 73.4694L329.049 75H330.855V74ZM352.707 39.0909L353.555 39.6215L353.884 39.0959L353.559 38.5675L352.707 39.0909ZM331.264 4.18182V3.18182H329.476L330.412 4.70522L331.264 4.18182ZM347.142 4.69104L361.222 28.4865L362.943 27.468L348.863 3.67259L347.142 4.69104ZM362.082 28.9773H362.628V26.9773H362.082V28.9773ZM363.487 28.4883L377.635 4.69287L375.916 3.67077L361.768 27.4662L363.487 28.4883ZM376.776 5.18182H393.446V3.18182H376.776V5.18182ZM392.592 3.66084L371.286 38.5699L372.993 39.6119L394.3 4.70279L392.592 3.66084ZM371.291 39.6203L393.075 74.5294L394.772 73.4706L372.988 38.5615L371.291 39.6203ZM393.923 73H376.946V75H393.923V73ZM377.803 73.485L363.485 49.6554L361.771 50.6855L376.089 74.515L377.803 73.485ZM362.628 49.1705H362.082V51.1705H362.628V49.1705ZM361.225 49.6554L346.907 73.485L348.621 74.515L362.94 50.6855L361.225 49.6554ZM347.764 73H330.855V75H347.764V73ZM331.703 74.5306L353.555 39.6215L351.86 38.5603L330.007 73.4694L331.703 74.5306ZM353.559 38.5675L332.116 3.65842L330.412 4.70522L351.855 39.6143L353.559 38.5675ZM331.264 5.18182H348.003V3.18182H331.264V5.18182Z" fill="white" mask="url(#path-1-outside-1_1_3)"/>
    </g>
    <defs>
    <filter id="filter0_d_1_3" x="0.0681763" y="0.193176" width="397.855" height="102.534" filterUnits="userSpaceOnUse" color-interpolation-filters="sRGB">
    <feFlood flood-opacity="0" result="BackgroundImageFix"/>
    <feColorMatrix in="SourceAlpha" type="matrix" values="0 0 0 0 0 0 0 0 0 0 0 0 0 0 0 0 0 0 127 0" result="hardAlpha"/>
    <feOffset dy="4"/>
    <feGaussianBlur stdDeviation="2"/>
    <feComposite in2="hardAlpha" operator="out"/>
    <feColorMatrix type="matrix" values="0 0 0 0 0 0 0 0 0 0 0 0 0 0 0 0 0 0 0.25 0"/>
    <feBlend mode="normal" in2="BackgroundImageFix" result="effect1_dropShadow_1_3"/>
    <feBlend mode="normal" in="SourceGraphic" in2="effect1_dropShadow_1_3" result="shape"/>
    </filter>
    </defs>
    </svg>
    