<svg xmlns="http://www.w3.org/2000/svg" xmlns:xlink="http://www.w3.org/1999/xlink" width="500" zoomAndPan="magnify" viewBox="0 0 375 374.999991" height="500" preserveAspectRatio="xMidYMid meet" version="1.0"><defs><clipPath id="dc15e41289"><path d="M 46.546875 98.875 L 183.046875 98.875 L 183.046875 235.375 L 46.546875 235.375 Z M 46.546875 98.875 " clip-rule="nonzero"/></clipPath><clipPath id="f4aa7e2b93"><path d="M 175.191406 98.875 L 311.691406 98.875 L 311.691406 235.375 L 175.191406 235.375 Z M 175.191406 98.875 " clip-rule="nonzero"/></clipPath><clipPath id="518e4c5f72"><path d="M 110.484375 131.585938 L 246.984375 131.585938 L 246.984375 268.085938 L 110.484375 268.085938 Z M 110.484375 131.585938 " clip-rule="nonzero"/></clipPath><clipPath id="fcd0b1395b"><path d="M 25 46.203125 L 332 46.203125 L 332 337.203125 L 25 337.203125 Z M 25 46.203125 " clip-rule="nonzero"/></clipPath></defs><g clip-path="url(#dc15e41289)"><path fill="#ffffff" d="M 183.046875 167.125 C 183.046875 168.242188 183.019531 169.355469 182.964844 170.472656 C 182.910156 171.589844 182.828125 172.703125 182.71875 173.8125 C 182.609375 174.925781 182.472656 176.03125 182.308594 177.136719 C 182.144531 178.242188 181.953125 179.34375 181.738281 180.4375 C 181.519531 181.535156 181.273438 182.625 181.003906 183.707031 C 180.730469 184.789062 180.433594 185.867188 180.109375 186.933594 C 179.785156 188.003906 179.433594 189.066406 179.058594 190.117188 C 178.683594 191.167969 178.28125 192.210938 177.851562 193.242188 C 177.425781 194.273438 176.972656 195.292969 176.496094 196.304688 C 176.019531 197.3125 175.515625 198.3125 174.988281 199.296875 C 174.460938 200.28125 173.914062 201.253906 173.339844 202.210938 C 172.765625 203.167969 172.167969 204.113281 171.546875 205.042969 C 170.925781 205.96875 170.28125 206.882812 169.617188 207.78125 C 168.953125 208.675781 168.265625 209.558594 167.554688 210.421875 C 166.847656 211.285156 166.117188 212.128906 165.367188 212.957031 C 164.617188 213.785156 163.847656 214.59375 163.058594 215.382812 C 162.269531 216.171875 161.460938 216.941406 160.632812 217.695312 C 159.804688 218.445312 158.957031 219.171875 158.09375 219.882812 C 157.230469 220.589844 156.351562 221.277344 155.453125 221.941406 C 154.558594 222.609375 153.644531 223.25 152.714844 223.871094 C 151.785156 224.492188 150.84375 225.089844 149.886719 225.664062 C 148.925781 226.238281 147.957031 226.789062 146.972656 227.316406 C 145.984375 227.839844 144.988281 228.34375 143.980469 228.820312 C 142.96875 229.296875 141.949219 229.75 140.917969 230.179688 C 139.882812 230.605469 138.84375 231.007812 137.789062 231.382812 C 136.738281 231.761719 135.679688 232.109375 134.609375 232.433594 C 133.542969 232.757812 132.464844 233.058594 131.382812 233.328125 C 130.296875 233.597656 129.207031 233.84375 128.113281 234.0625 C 127.015625 234.28125 125.917969 234.472656 124.8125 234.636719 C 123.707031 234.796875 122.597656 234.933594 121.488281 235.042969 C 120.375 235.15625 119.261719 235.238281 118.148438 235.292969 C 117.03125 235.347656 115.914062 235.375 114.796875 235.375 C 113.679688 235.375 112.566406 235.347656 111.449219 235.292969 C 110.332031 235.238281 109.21875 235.15625 108.109375 235.042969 C 106.996094 234.933594 105.886719 234.796875 104.785156 234.636719 C 103.679688 234.472656 102.578125 234.28125 101.484375 234.0625 C 100.386719 233.84375 99.296875 233.597656 98.214844 233.328125 C 97.132812 233.058594 96.054688 232.757812 94.984375 232.433594 C 93.917969 232.109375 92.855469 231.761719 91.804688 231.382812 C 90.753906 231.007812 89.710938 230.605469 88.679688 230.179688 C 87.648438 229.75 86.628906 229.296875 85.617188 228.820312 C 84.609375 228.34375 83.609375 227.839844 82.625 227.316406 C 81.640625 226.789062 80.667969 226.238281 79.710938 225.664062 C 78.753906 225.089844 77.808594 224.492188 76.878906 223.871094 C 75.953125 223.25 75.039062 222.609375 74.140625 221.941406 C 73.246094 221.277344 72.363281 220.589844 71.5 219.882812 C 70.636719 219.171875 69.792969 218.445312 68.964844 217.695312 C 68.136719 216.941406 67.328125 216.171875 66.539062 215.382812 C 65.75 214.59375 64.976562 213.785156 64.226562 212.957031 C 63.476562 212.128906 62.75 211.285156 62.039062 210.421875 C 61.332031 209.558594 60.644531 208.675781 59.980469 207.78125 C 59.3125 206.882812 58.671875 205.96875 58.050781 205.042969 C 57.429688 204.113281 56.832031 203.167969 56.257812 202.210938 C 55.683594 201.253906 55.132812 200.28125 54.605469 199.296875 C 54.082031 198.3125 53.578125 197.3125 53.101562 196.304688 C 52.625 195.292969 52.171875 194.273438 51.742188 193.242188 C 51.316406 192.210938 50.914062 191.167969 50.539062 190.117188 C 50.160156 189.066406 49.8125 188.003906 49.488281 186.933594 C 49.164062 185.867188 48.863281 184.789062 48.59375 183.707031 C 48.320312 182.625 48.078125 181.535156 47.859375 180.4375 C 47.640625 179.34375 47.449219 178.242188 47.285156 177.136719 C 47.121094 176.03125 46.984375 174.925781 46.875 173.8125 C 46.765625 172.703125 46.683594 171.589844 46.628906 170.472656 C 46.574219 169.355469 46.546875 168.242188 46.546875 167.125 C 46.546875 166.007812 46.574219 164.890625 46.628906 163.773438 C 46.683594 162.660156 46.765625 161.546875 46.875 160.433594 C 46.984375 159.324219 47.121094 158.214844 47.285156 157.109375 C 47.449219 156.003906 47.640625 154.902344 47.859375 153.808594 C 48.078125 152.714844 48.320312 151.625 48.59375 150.539062 C 48.863281 149.457031 49.164062 148.378906 49.488281 147.3125 C 49.8125 146.242188 50.160156 145.183594 50.539062 144.128906 C 50.914062 143.078125 51.316406 142.039062 51.742188 141.003906 C 52.171875 139.972656 52.625 138.953125 53.101562 137.941406 C 53.578125 136.933594 54.082031 135.9375 54.605469 134.949219 C 55.132812 133.964844 55.683594 132.992188 56.257812 132.035156 C 56.832031 131.078125 57.429688 130.132812 58.050781 129.207031 C 58.671875 128.277344 59.3125 127.363281 59.980469 126.46875 C 60.644531 125.570312 61.332031 124.691406 62.039062 123.828125 C 62.75 122.960938 63.476562 122.117188 64.226562 121.289062 C 64.976562 120.460938 65.75 119.652344 66.539062 118.863281 C 67.328125 118.074219 68.136719 117.304688 68.964844 116.554688 C 69.792969 115.804688 70.636719 115.074219 71.5 114.367188 C 72.363281 113.65625 73.246094 112.96875 74.140625 112.304688 C 75.039062 111.640625 75.953125 110.996094 76.878906 110.375 C 77.808594 109.753906 78.753906 109.15625 79.710938 108.582031 C 80.667969 108.007812 81.640625 107.457031 82.625 106.933594 C 83.609375 106.40625 84.609375 105.902344 85.617188 105.425781 C 86.628906 104.949219 87.648438 104.496094 88.679688 104.070312 C 89.710938 103.640625 90.753906 103.238281 91.804688 102.863281 C 92.855469 102.488281 93.917969 102.136719 94.984375 101.8125 C 96.054688 101.488281 97.132812 101.191406 98.214844 100.917969 C 99.296875 100.648438 100.386719 100.402344 101.484375 100.183594 C 102.578125 99.96875 103.679688 99.777344 104.785156 99.613281 C 105.886719 99.449219 106.996094 99.3125 108.109375 99.203125 C 109.21875 99.09375 110.332031 99.011719 111.449219 98.957031 C 112.566406 98.902344 113.679688 98.875 114.796875 98.875 C 115.914062 98.875 117.03125 98.902344 118.148438 98.957031 C 119.261719 99.011719 120.375 99.09375 121.488281 99.203125 C 122.597656 99.3125 123.707031 99.449219 124.8125 99.613281 C 125.917969 99.777344 127.015625 99.96875 128.113281 100.183594 C 129.207031 100.402344 130.296875 100.648438 131.382812 100.917969 C 132.464844 101.191406 133.542969 101.488281 134.609375 101.8125 C 135.679688 102.136719 136.738281 102.488281 137.789062 102.863281 C 138.84375 103.238281 139.882812 103.640625 140.917969 104.070312 C 141.949219 104.496094 142.96875 104.949219 143.980469 105.425781 C 144.988281 105.902344 145.984375 106.40625 146.972656 106.933594 C 147.957031 107.457031 148.925781 108.007812 149.886719 108.582031 C 150.84375 109.15625 151.785156 109.753906 152.714844 110.375 C 153.644531 110.996094 154.558594 111.640625 155.453125 112.304688 C 156.351562 112.96875 157.230469 113.65625 158.09375 114.367188 C 158.957031 115.074219 159.804688 115.804688 160.632812 116.554688 C 161.460938 117.304688 162.269531 118.074219 163.058594 118.863281 C 163.847656 119.652344 164.617188 120.460938 165.367188 121.289062 C 166.117188 122.117188 166.847656 122.960938 167.554688 123.828125 C 168.265625 124.691406 168.953125 125.570312 169.617188 126.46875 C 170.28125 127.363281 170.925781 128.277344 171.546875 129.207031 C 172.167969 130.132812 172.765625 131.078125 173.339844 132.035156 C 173.914062 132.992188 174.460938 133.964844 174.988281 134.949219 C 175.515625 135.9375 176.019531 136.933594 176.496094 137.941406 C 176.972656 138.953125 177.425781 139.972656 177.851562 141.003906 C 178.28125 142.039062 178.683594 143.078125 179.058594 144.128906 C 179.433594 145.183594 179.785156 146.242188 180.109375 147.3125 C 180.433594 148.378906 180.730469 149.457031 181.003906 150.539062 C 181.273438 151.625 181.519531 152.714844 181.738281 153.808594 C 181.953125 154.902344 182.144531 156.003906 182.308594 157.109375 C 182.472656 158.214844 182.609375 159.324219 182.71875 160.433594 C 182.828125 161.546875 182.910156 162.660156 182.964844 163.773438 C 183.019531 164.890625 183.046875 166.007812 183.046875 167.125 Z M 183.046875 167.125 " fill-opacity="1" fill-rule="nonzero"/></g><g clip-path="url(#f4aa7e2b93)"><path fill="#ffffff" d="M 311.691406 167.125 C 311.691406 168.242188 311.664062 169.355469 311.609375 170.472656 C 311.554688 171.589844 311.472656 172.703125 311.363281 173.8125 C 311.253906 174.925781 311.117188 176.03125 310.953125 177.136719 C 310.789062 178.242188 310.597656 179.34375 310.378906 180.4375 C 310.160156 181.535156 309.917969 182.625 309.644531 183.707031 C 309.375 184.789062 309.074219 185.867188 308.75 186.933594 C 308.425781 188.003906 308.078125 189.066406 307.699219 190.117188 C 307.324219 191.167969 306.921875 192.210938 306.496094 193.242188 C 306.066406 194.273438 305.613281 195.292969 305.136719 196.304688 C 304.660156 197.3125 304.15625 198.3125 303.632812 199.296875 C 303.105469 200.28125 302.554688 201.253906 301.980469 202.210938 C 301.40625 203.167969 300.808594 204.113281 300.1875 205.042969 C 299.566406 205.96875 298.925781 206.882812 298.257812 207.78125 C 297.59375 208.675781 296.90625 209.558594 296.199219 210.421875 C 295.488281 211.285156 294.761719 212.128906 294.011719 212.957031 C 293.261719 213.785156 292.492188 214.59375 291.699219 215.382812 C 290.910156 216.171875 290.101562 216.941406 289.273438 217.695312 C 288.445312 218.445312 287.601562 219.171875 286.738281 219.882812 C 285.875 220.589844 284.992188 221.277344 284.097656 221.941406 C 283.199219 222.609375 282.285156 223.25 281.359375 223.871094 C 280.429688 224.492188 279.484375 225.089844 278.527344 225.664062 C 277.570312 226.238281 276.597656 226.789062 275.613281 227.316406 C 274.628906 227.839844 273.628906 228.34375 272.621094 228.820312 C 271.609375 229.296875 270.589844 229.75 269.558594 230.179688 C 268.527344 230.605469 267.484375 231.007812 266.433594 231.382812 C 265.382812 231.761719 264.320312 232.109375 263.253906 232.433594 C 262.183594 232.757812 261.105469 233.058594 260.023438 233.328125 C 258.941406 233.597656 257.851562 233.84375 256.753906 234.0625 C 255.660156 234.28125 254.558594 234.472656 253.453125 234.636719 C 252.351562 234.796875 251.242188 234.933594 250.128906 235.042969 C 249.019531 235.15625 247.90625 235.238281 246.789062 235.292969 C 245.671875 235.347656 244.558594 235.375 243.441406 235.375 C 242.324219 235.375 241.207031 235.347656 240.089844 235.292969 C 238.976562 235.238281 237.863281 235.15625 236.75 235.042969 C 235.640625 234.933594 234.53125 234.796875 233.425781 234.636719 C 232.320312 234.472656 231.222656 234.28125 230.125 234.0625 C 229.03125 233.84375 227.941406 233.597656 226.855469 233.328125 C 225.773438 233.058594 224.699219 232.757812 223.628906 232.433594 C 222.558594 232.109375 221.5 231.761719 220.449219 231.382812 C 219.394531 231.007812 218.355469 230.605469 217.320312 230.179688 C 216.289062 229.75 215.269531 229.296875 214.257812 228.820312 C 213.25 228.34375 212.253906 227.839844 211.265625 227.316406 C 210.28125 226.789062 209.3125 226.238281 208.351562 225.664062 C 207.394531 225.089844 206.453125 224.492188 205.523438 223.871094 C 204.59375 223.25 203.679688 222.609375 202.785156 221.941406 C 201.886719 221.277344 201.007812 220.589844 200.144531 219.882812 C 199.28125 219.171875 198.433594 218.445312 197.605469 217.695312 C 196.777344 216.941406 195.96875 216.171875 195.179688 215.382812 C 194.390625 214.59375 193.621094 213.785156 192.871094 212.957031 C 192.121094 212.128906 191.390625 211.285156 190.683594 210.421875 C 189.972656 209.558594 189.285156 208.675781 188.621094 207.78125 C 187.957031 206.882812 187.3125 205.96875 186.691406 205.042969 C 186.070312 204.113281 185.476562 203.167969 184.902344 202.210938 C 184.328125 201.253906 183.777344 200.28125 183.25 199.296875 C 182.722656 198.3125 182.21875 197.3125 181.742188 196.304688 C 181.265625 195.292969 180.8125 194.273438 180.386719 193.242188 C 179.957031 192.210938 179.554688 191.167969 179.179688 190.117188 C 178.804688 189.066406 178.453125 188.003906 178.128906 186.933594 C 177.804688 185.867188 177.507812 184.789062 177.234375 183.707031 C 176.964844 182.625 176.71875 181.535156 176.5 180.4375 C 176.285156 179.34375 176.09375 178.242188 175.929688 177.136719 C 175.765625 176.03125 175.628906 174.925781 175.519531 173.8125 C 175.410156 172.703125 175.328125 171.589844 175.273438 170.472656 C 175.21875 169.355469 175.191406 168.242188 175.191406 167.125 C 175.191406 166.007812 175.21875 164.890625 175.273438 163.773438 C 175.328125 162.660156 175.410156 161.546875 175.519531 160.433594 C 175.628906 159.324219 175.765625 158.214844 175.929688 157.109375 C 176.09375 156.003906 176.285156 154.902344 176.5 153.808594 C 176.71875 152.714844 176.964844 151.625 177.234375 150.539062 C 177.507812 149.457031 177.804688 148.378906 178.128906 147.3125 C 178.453125 146.242188 178.804688 145.183594 179.179688 144.128906 C 179.554688 143.078125 179.957031 142.039062 180.386719 141.003906 C 180.8125 139.972656 181.265625 138.953125 181.742188 137.941406 C 182.21875 136.933594 182.722656 135.9375 183.25 134.949219 C 183.777344 133.964844 184.328125 132.992188 184.902344 132.035156 C 185.476562 131.078125 186.070312 130.132812 186.691406 129.207031 C 187.3125 128.277344 187.957031 127.363281 188.621094 126.46875 C 189.285156 125.570312 189.972656 124.691406 190.683594 123.828125 C 191.390625 122.960938 192.121094 122.117188 192.871094 121.289062 C 193.621094 120.460938 194.390625 119.652344 195.179688 118.863281 C 195.96875 118.074219 196.777344 117.304688 197.605469 116.554688 C 198.433594 115.804688 199.28125 115.074219 200.144531 114.367188 C 201.007812 113.65625 201.886719 112.96875 202.785156 112.304688 C 203.679688 111.640625 204.59375 110.996094 205.523438 110.375 C 206.453125 109.753906 207.394531 109.15625 208.351562 108.582031 C 209.3125 108.007812 210.28125 107.457031 211.265625 106.933594 C 212.253906 106.40625 213.25 105.902344 214.257812 105.425781 C 215.269531 104.949219 216.289062 104.496094 217.320312 104.070312 C 218.355469 103.640625 219.394531 103.238281 220.449219 102.863281 C 221.5 102.488281 222.558594 102.136719 223.628906 101.8125 C 224.699219 101.488281 225.773438 101.191406 226.855469 100.917969 C 227.941406 100.648438 229.03125 100.402344 230.125 100.183594 C 231.222656 99.96875 232.320312 99.777344 233.425781 99.613281 C 234.53125 99.449219 235.640625 99.3125 236.75 99.203125 C 237.863281 99.09375 238.976562 99.011719 240.089844 98.957031 C 241.207031 98.902344 242.324219 98.875 243.441406 98.875 C 244.558594 98.875 245.671875 98.902344 246.789062 98.957031 C 247.90625 99.011719 249.019531 99.09375 250.128906 99.203125 C 251.242188 99.3125 252.351562 99.449219 253.453125 99.613281 C 254.558594 99.777344 255.660156 99.96875 256.753906 100.183594 C 257.851562 100.402344 258.941406 100.648438 260.023438 100.917969 C 261.105469 101.191406 262.183594 101.488281 263.253906 101.8125 C 264.320312 102.136719 265.382812 102.488281 266.433594 102.863281 C 267.484375 103.238281 268.527344 103.640625 269.558594 104.070312 C 270.589844 104.496094 271.609375 104.949219 272.621094 105.425781 C 273.628906 105.902344 274.628906 106.40625 275.613281 106.933594 C 276.597656 107.457031 277.570312 108.007812 278.527344 108.582031 C 279.484375 109.15625 280.429688 109.753906 281.359375 110.375 C 282.285156 110.996094 283.199219 111.640625 284.097656 112.304688 C 284.992188 112.96875 285.875 113.65625 286.738281 114.367188 C 287.601562 115.074219 288.445312 115.804688 289.273438 116.554688 C 290.101562 117.304688 290.910156 118.074219 291.699219 118.863281 C 292.492188 119.652344 293.261719 120.460938 294.011719 121.289062 C 294.761719 122.117188 295.488281 122.960938 296.199219 123.828125 C 296.90625 124.691406 297.59375 125.570312 298.257812 126.46875 C 298.925781 127.363281 299.566406 128.277344 300.1875 129.207031 C 300.808594 130.132812 301.40625 131.078125 301.980469 132.035156 C 302.554688 132.992188 303.105469 133.964844 303.632812 134.949219 C 304.15625 135.9375 304.660156 136.933594 305.136719 137.941406 C 305.613281 138.953125 306.066406 139.972656 306.496094 141.003906 C 306.921875 142.039062 307.324219 143.078125 307.699219 144.128906 C 308.078125 145.183594 308.425781 146.242188 308.75 147.3125 C 309.074219 148.378906 309.375 149.457031 309.644531 150.539062 C 309.917969 151.625 310.160156 152.714844 310.378906 153.808594 C 310.597656 154.902344 310.789062 156.003906 310.953125 157.109375 C 311.117188 158.214844 311.253906 159.324219 311.363281 160.433594 C 311.472656 161.546875 311.554688 162.660156 311.609375 163.773438 C 311.664062 164.890625 311.691406 166.007812 311.691406 167.125 Z M 311.691406 167.125 " fill-opacity="1" fill-rule="nonzero"/></g><g clip-path="url(#518e4c5f72)"><path fill="#ffffff" d="M 246.984375 199.835938 C 246.984375 200.953125 246.957031 202.070312 246.902344 203.183594 C 246.847656 204.300781 246.765625 205.414062 246.65625 206.527344 C 246.546875 207.636719 246.410156 208.746094 246.246094 209.851562 C 246.082031 210.953125 245.890625 212.054688 245.671875 213.152344 C 245.453125 214.246094 245.210938 215.335938 244.9375 216.417969 C 244.667969 217.503906 244.367188 218.578125 244.042969 219.648438 C 243.71875 220.714844 243.371094 221.777344 242.992188 222.828125 C 242.617188 223.878906 242.214844 224.921875 241.789062 225.953125 C 241.359375 226.984375 240.90625 228.007812 240.429688 229.015625 C 239.953125 230.027344 239.449219 231.023438 238.925781 232.007812 C 238.398438 232.992188 237.847656 233.964844 237.273438 234.921875 C 236.699219 235.882812 236.101562 236.824219 235.480469 237.753906 C 234.859375 238.683594 234.21875 239.59375 233.550781 240.492188 C 232.886719 241.390625 232.199219 242.269531 231.492188 243.132812 C 230.78125 243.996094 230.054688 244.84375 229.304688 245.667969 C 228.554688 246.496094 227.78125 247.304688 226.992188 248.097656 C 226.203125 248.886719 225.394531 249.65625 224.566406 250.40625 C 223.738281 251.15625 222.894531 251.886719 222.03125 252.59375 C 221.167969 253.300781 220.285156 253.988281 219.390625 254.65625 C 218.492188 255.320312 217.578125 255.964844 216.652344 256.582031 C 215.722656 257.203125 214.777344 257.800781 213.820312 258.375 C 212.863281 258.949219 211.890625 259.5 210.90625 260.027344 C 209.921875 260.554688 208.921875 261.054688 207.914062 261.53125 C 206.902344 262.011719 205.882812 262.464844 204.851562 262.890625 C 203.820312 263.316406 202.777344 263.71875 201.726562 264.097656 C 200.675781 264.472656 199.613281 264.824219 198.546875 265.148438 C 197.476562 265.472656 196.398438 265.769531 195.316406 266.039062 C 194.234375 266.3125 193.144531 266.554688 192.046875 266.773438 C 190.953125 266.992188 189.851562 267.183594 188.746094 267.347656 C 187.644531 267.511719 186.535156 267.648438 185.421875 267.757812 C 184.3125 267.867188 183.199219 267.949219 182.082031 268.003906 C 180.964844 268.058594 179.851562 268.085938 178.734375 268.085938 C 177.617188 268.085938 176.5 268.058594 175.382812 268.003906 C 174.269531 267.949219 173.15625 267.867188 172.042969 267.757812 C 170.933594 267.648438 169.824219 267.511719 168.71875 267.347656 C 167.613281 267.183594 166.515625 266.992188 165.417969 266.773438 C 164.324219 266.554688 163.234375 266.3125 162.148438 266.039062 C 161.066406 265.769531 159.988281 265.472656 158.921875 265.148438 C 157.851562 264.824219 156.792969 264.472656 155.742188 264.097656 C 154.6875 263.71875 153.648438 263.316406 152.613281 262.890625 C 151.582031 262.464844 150.5625 262.011719 149.550781 261.53125 C 148.542969 261.054688 147.546875 260.554688 146.558594 260.027344 C 145.574219 259.5 144.605469 258.949219 143.644531 258.375 C 142.6875 257.800781 141.746094 257.203125 140.816406 256.582031 C 139.886719 255.964844 138.972656 255.320312 138.078125 254.65625 C 137.179688 253.988281 136.300781 253.300781 135.4375 252.59375 C 134.574219 251.886719 133.726562 251.15625 132.898438 250.40625 C 132.070312 249.65625 131.261719 248.886719 130.472656 248.097656 C 129.683594 247.304688 128.914062 246.496094 128.164062 245.667969 C 127.414062 244.84375 126.683594 243.996094 125.976562 243.132812 C 125.265625 242.269531 124.578125 241.390625 123.914062 240.492188 C 123.25 239.59375 122.605469 238.683594 121.984375 237.753906 C 121.363281 236.824219 120.765625 235.882812 120.191406 234.921875 C 119.617188 233.964844 119.070312 232.992188 118.542969 232.007812 C 118.015625 231.023438 117.511719 230.027344 117.035156 229.015625 C 116.558594 228.007812 116.105469 226.984375 115.679688 225.953125 C 115.25 224.921875 114.847656 223.878906 114.472656 222.828125 C 114.097656 221.777344 113.746094 220.714844 113.421875 219.648438 C 113.097656 218.578125 112.800781 217.503906 112.527344 216.417969 C 112.257812 215.335938 112.011719 214.246094 111.792969 213.152344 C 111.578125 212.054688 111.386719 210.953125 111.222656 209.851562 C 111.058594 208.746094 110.921875 207.636719 110.8125 206.527344 C 110.703125 205.414062 110.621094 204.300781 110.566406 203.183594 C 110.511719 202.070312 110.484375 200.953125 110.484375 199.835938 C 110.484375 198.71875 110.511719 197.601562 110.566406 196.488281 C 110.621094 195.371094 110.703125 194.257812 110.8125 193.144531 C 110.921875 192.035156 111.058594 190.925781 111.222656 189.820312 C 111.386719 188.714844 111.578125 187.617188 111.792969 186.519531 C 112.011719 185.425781 112.257812 184.335938 112.527344 183.253906 C 112.800781 182.167969 113.097656 181.09375 113.421875 180.023438 C 113.746094 178.953125 114.097656 177.894531 114.472656 176.84375 C 114.847656 175.792969 115.25 174.75 115.679688 173.71875 C 116.105469 172.6875 116.558594 171.664062 117.035156 170.65625 C 117.511719 169.644531 118.015625 168.648438 118.542969 167.664062 C 119.070312 166.679688 119.617188 165.707031 120.191406 164.75 C 120.765625 163.789062 121.363281 162.847656 121.984375 161.917969 C 122.605469 160.988281 123.25 160.078125 123.914062 159.179688 C 124.578125 158.28125 125.265625 157.402344 125.976562 156.539062 C 126.683594 155.675781 127.414062 154.828125 128.164062 154 C 128.914062 153.175781 129.683594 152.367188 130.472656 151.574219 C 131.261719 150.785156 132.070312 150.015625 132.898438 149.265625 C 133.726562 148.515625 134.574219 147.785156 135.4375 147.078125 C 136.300781 146.371094 137.179688 145.683594 138.078125 145.015625 C 138.972656 144.351562 139.886719 143.707031 140.816406 143.089844 C 141.746094 142.46875 142.6875 141.871094 143.644531 141.296875 C 144.605469 140.722656 145.574219 140.171875 146.558594 139.644531 C 147.546875 139.117188 148.542969 138.617188 149.550781 138.136719 C 150.5625 137.660156 151.582031 137.207031 152.613281 136.78125 C 153.648438 136.355469 154.6875 135.953125 155.742188 135.574219 C 156.792969 135.199219 157.851562 134.847656 158.921875 134.523438 C 159.988281 134.199219 161.066406 133.902344 162.148438 133.632812 C 163.234375 133.359375 164.324219 133.113281 165.417969 132.898438 C 166.515625 132.679688 167.613281 132.488281 168.71875 132.324219 C 169.824219 132.160156 170.933594 132.023438 172.042969 131.914062 C 173.15625 131.804688 174.269531 131.722656 175.382812 131.667969 C 176.5 131.613281 177.617188 131.585938 178.734375 131.585938 C 179.851562 131.585938 180.964844 131.613281 182.082031 131.667969 C 183.199219 131.722656 184.3125 131.804688 185.421875 131.914062 C 186.535156 132.023438 187.644531 132.160156 188.746094 132.324219 C 189.851562 132.488281 190.953125 132.679688 192.046875 132.898438 C 193.144531 133.113281 194.234375 133.359375 195.316406 133.632812 C 196.398438 133.902344 197.476562 134.199219 198.546875 134.523438 C 199.613281 134.847656 200.675781 135.199219 201.726562 135.574219 C 202.777344 135.953125 203.820312 136.355469 204.851562 136.78125 C 205.882812 137.207031 206.902344 137.660156 207.914062 138.136719 C 208.921875 138.617188 209.921875 139.117188 210.90625 139.644531 C 211.890625 140.171875 212.863281 140.722656 213.820312 141.296875 C 214.777344 141.871094 215.722656 142.46875 216.652344 143.089844 C 217.578125 143.707031 218.492188 144.351562 219.390625 145.015625 C 220.285156 145.683594 221.167969 146.371094 222.03125 147.078125 C 222.894531 147.785156 223.738281 148.515625 224.566406 149.265625 C 225.394531 150.015625 226.203125 150.785156 226.992188 151.574219 C 227.78125 152.367188 228.554688 153.175781 229.304688 154 C 230.054688 154.828125 230.78125 155.675781 231.492188 156.539062 C 232.199219 157.402344 232.886719 158.28125 233.550781 159.179688 C 234.21875 160.078125 234.859375 160.988281 235.480469 161.917969 C 236.101562 162.847656 236.699219 163.789062 237.273438 164.75 C 237.847656 165.707031 238.398438 166.679688 238.925781 167.664062 C 239.449219 168.648438 239.953125 169.644531 240.429688 170.65625 C 240.90625 171.664062 241.359375 172.6875 241.789062 173.71875 C 242.214844 174.75 242.617188 175.792969 242.992188 176.84375 C 243.371094 177.894531 243.71875 178.953125 244.042969 180.023438 C 244.367188 181.09375 244.667969 182.167969 244.9375 183.253906 C 245.210938 184.335938 245.453125 185.425781 245.671875 186.519531 C 245.890625 187.617188 246.082031 188.714844 246.246094 189.820312 C 246.410156 190.925781 246.546875 192.035156 246.65625 193.144531 C 246.765625 194.257812 246.847656 195.371094 246.902344 196.488281 C 246.957031 197.601562 246.984375 198.71875 246.984375 199.835938 Z M 246.984375 199.835938 " fill-opacity="1" fill-rule="nonzero"/></g><path fill="#004aad" d="M 112.140625 141.269531 C 127.695312 141.269531 140.261719 153.835938 140.261719 169.390625 C 140.261719 184.945312 127.695312 197.511719 112.140625 197.511719 C 96.585938 197.511719 84.019531 184.945312 84.019531 169.390625 L 112.140625 169.390625 Z M 243.726562 169.390625 L 215.605469 169.390625 C 215.605469 184.945312 228.171875 197.511719 243.726562 197.511719 C 259.28125 197.511719 271.847656 184.945312 271.847656 169.390625 C 271.847656 153.835938 259.28125 141.269531 243.726562 141.269531 Z M 243.726562 169.390625 " fill-opacity="1" fill-rule="evenodd"/><g clip-path="url(#fcd0b1395b)"><path fill="#004aad" d="M 122.03125 316.03125 C 125.703125 316.03125 128.691406 320.820312 128.691406 326.730469 C 128.691406 332.640625 125.703125 337.433594 122.03125 337.433594 C 118.363281 337.433594 115.375 332.640625 115.375 326.730469 C 115.375 320.820312 118.363281 316.03125 122.03125 316.03125 M 140.636719 316.03125 C 136.964844 316.03125 133.976562 320.820312 133.976562 326.730469 C 133.976562 332.640625 136.964844 337.433594 140.636719 337.433594 C 144.304688 337.433594 147.292969 332.640625 147.292969 326.730469 C 147.292969 320.820312 144.304688 316.03125 140.636719 316.03125 M 159.300781 316.03125 C 155.628906 316.03125 152.644531 320.820312 152.644531 326.730469 C 152.644531 332.640625 155.628906 337.433594 159.300781 337.433594 C 162.96875 337.433594 165.957031 332.640625 165.957031 326.730469 C 165.957031 320.820312 162.96875 316.03125 159.300781 316.03125 M 195.820312 316.03125 C 192.148438 316.03125 189.164062 320.820312 189.164062 326.730469 C 189.164062 332.640625 192.148438 337.433594 195.820312 337.433594 C 199.492188 337.433594 202.476562 332.640625 202.476562 326.730469 C 202.476562 320.820312 199.492188 316.03125 195.820312 316.03125 M 214.421875 316.03125 C 210.75 316.03125 207.765625 320.820312 207.765625 326.730469 C 207.765625 332.640625 210.75 337.433594 214.421875 337.433594 C 218.09375 337.433594 221.078125 332.640625 221.078125 326.730469 C 221.078125 320.820312 218.09375 316.03125 214.421875 316.03125 M 233.023438 316.03125 C 229.355469 316.03125 226.367188 320.820312 226.367188 326.730469 C 226.367188 332.640625 229.355469 337.433594 233.023438 337.433594 C 236.695312 337.433594 239.683594 332.640625 239.683594 326.730469 C 239.742188 320.820312 236.757812 316.03125 233.023438 316.03125 M 37.546875 202.363281 C 37.546875 202.363281 -4.140625 265.015625 70.394531 281.316406 C 63.988281 272.230469 58.511719 262.527344 53.84375 252.570312 C 46.503906 236.957031 40.96875 219.847656 37.546875 202.363281 M 319.9375 202.363281 C 316.515625 219.785156 310.980469 236.894531 303.640625 252.570312 C 298.972656 262.589844 293.433594 272.292969 287.089844 281.316406 C 361.683594 265.078125 319.9375 202.363281 319.9375 202.363281 M 311.105469 138.90625 C 312.847656 151.96875 315.894531 174.179688 307.992188 205.972656 C 298.660156 247.84375 275.890625 290.273438 239.371094 313.292969 C 237.691406 311.863281 235.574219 310.929688 233.023438 310.929688 C 228.730469 310.929688 225.621094 313.542969 223.691406 316.964844 C 221.765625 313.480469 218.714844 310.929688 214.359375 310.929688 C 210.066406 310.929688 206.957031 313.542969 205.027344 316.964844 C 203.097656 313.480469 200.050781 310.929688 195.695312 310.929688 C 187.671875 310.929688 183.9375 319.886719 183.9375 326.730469 C 183.9375 327.976562 184.0625 329.28125 184.308594 330.589844 C 182.195312 330.714844 180.015625 330.777344 177.839844 330.777344 C 175.351562 330.777344 172.988281 330.652344 170.5625 330.527344 C 170.808594 329.21875 170.933594 327.914062 170.933594 326.730469 C 170.933594 319.886719 167.203125 310.929688 159.175781 310.929688 C 154.882812 310.929688 151.773438 313.542969 149.84375 316.964844 C 147.914062 313.480469 144.867188 310.929688 140.511719 310.929688 C 136.21875 310.929688 133.109375 313.542969 131.179688 316.964844 C 129.25 313.480469 126.203125 310.929688 121.847656 310.929688 C 119.480469 310.929688 117.492188 311.738281 115.875 312.980469 C 79.601562 289.902344 57.019531 247.65625 47.6875 205.972656 C 42.210938 178.039062 39.910156 159.621094 44.574219 138.90625 C 47.1875 123.039062 52.476562 109.664062 60.503906 100.703125 C 60.503906 100.703125 37.730469 77.375 27.714844 46.265625 C 65.480469 75.132812 177.777344 56.285156 177.777344 105.183594 C 177.777344 56.285156 290.015625 75.195312 327.839844 46.265625 C 317.824219 77.375 295.054688 100.703125 295.054688 100.703125 C 303.203125 109.664062 308.554688 123.039062 311.105469 138.90625 Z M 172.488281 169.390625 C 172.488281 136.042969 145.488281 109.042969 112.140625 109.042969 C 78.792969 109.042969 51.792969 136.042969 51.792969 169.390625 C 51.792969 202.738281 78.792969 229.738281 112.140625 229.738281 C 145.488281 229.800781 172.488281 202.738281 172.488281 169.390625 Z M 177.902344 207.839844 C 166.578125 207.839844 157.058594 214.683594 177.902344 241.683594 C 198.746094 214.683594 189.289062 207.839844 177.902344 207.839844 Z M 304.074219 169.390625 C 304.074219 136.042969 277.074219 109.042969 243.726562 109.042969 C 210.378906 109.042969 183.378906 136.042969 183.378906 169.390625 C 183.378906 202.738281 210.378906 229.738281 243.726562 229.738281 C 277.074219 229.800781 304.074219 202.738281 304.074219 169.390625 Z M 304.074219 169.390625 " fill-opacity="1" fill-rule="evenodd"/></g></svg>