<svg xmlns="http://www.w3.org/2000/svg" xmlns:xlink="http://www.w3.org/1999/xlink" width="500" zoomAndPan="magnify" viewBox="0 0 375 374.999991" height="500" preserveAspectRatio="xMidYMid meet" version="1.0"><defs><clipPath id="c001338a03"><path d="M 6.894531 28.40625 L 368.394531 28.40625 L 368.394531 337.40625 L 6.894531 337.40625 Z M 6.894531 28.40625 " clip-rule="nonzero"/></clipPath></defs><g clip-path="url(#c001338a03)"><path fill="#004aad" d="M 240.609375 193.65625 C 243.242188 198.761719 242.285156 205.648438 243.824219 211.308594 C 252.363281 199.980469 256.648438 186.207031 256 171.910156 C 255.890625 170.097656 256.601562 169.335938 258.199219 168.691406 C 266.402344 165.246094 276.074219 161.960938 281.652344 154.925781 C 273.707031 155.859375 265.730469 158.433594 257.628906 158.390625 C 305.449219 139.582031 375.773438 111.402344 367.355469 48.441406 C 366.167969 41.675781 364.464844 34.003906 359.941406 28.777344 C 366.675781 82.871094 305.234375 115.007812 258.695312 118.515625 C 256.734375 118.726562 255.921875 119.371094 255.589844 121.246094 C 250.085938 145.375 228.597656 159.960938 205.0625 163.269531 C 244.625 192.996094 219.601562 250.136719 189.464844 277.363281 C 188.277344 278.445312 187.488281 278.769531 186.117188 277.476562 C 156.21875 250.417969 130.652344 192.601562 170.65625 163.425781 C 147.566406 159.976562 125.515625 144.855469 120.066406 121.003906 C 119.726562 119.480469 118.972656 118.757812 117.292969 118.578125 C 70.292969 114.988281 8.390625 83.15625 15.105469 28.40625 C -19.671875 97.742188 64.773438 139.515625 118.203125 158.222656 C 110.027344 158.355469 101.960938 155.621094 93.949219 155.101562 C 99.511719 162.34375 108.878906 165.351562 117.0625 168.730469 C 119.675781 169.796875 119.761719 169.808594 119.621094 172.613281 C 119.0625 186.144531 123.941406 200.207031 131.988281 210.980469 C 132.742188 205.214844 132.554688 198.886719 135.203125 193.613281 C 135.546875 221.011719 142.355469 247.777344 151.09375 273.457031 C 150.703125 282.035156 149.691406 293.203125 157.542969 298.804688 C 157.875 294.96875 155.730469 290.679688 157.265625 287.089844 C 158.230469 295.144531 160.453125 302.277344 167.378906 307.230469 C 170.257812 310.351562 167.949219 315.484375 172.140625 318.910156 C 180.28125 326.335938 182.761719 325.414062 184.660156 337.488281 C 192.859375 314.445312 163.433594 302.683594 169.046875 288.464844 C 176.480469 295.597656 182.949219 304.519531 187.308594 313.925781 C 190.800781 305.992188 196.839844 299.601562 201.832031 292.59375 C 202.675781 291.929688 206.105469 286.300781 206.636719 288.875 C 207.726562 293.863281 206.0625 298.625 202.550781 302.214844 C 194.789062 311.902344 186.140625 324.496094 190.496094 337.398438 C 192.230469 327.277344 194.820312 326.121094 202.371094 320.140625 C 208.644531 314.992188 204.664062 309.777344 208.28125 306.882812 C 215.417969 302.378906 216.394531 294 217.820312 286.425781 C 219.328125 289.886719 217.890625 294.976562 217.808594 298.847656 C 223.921875 293.179688 224.867188 285.863281 224.449219 277.046875 C 222.9375 272.878906 225.609375 267.667969 227.683594 263.128906 C 235.890625 240.933594 239.570312 217.164062 240.609375 193.65625 Z M 240.609375 193.65625 " fill-opacity="1" fill-rule="nonzero"/></g><path fill="#004aad" d="M 133.03125 108.859375 C 136.800781 113.207031 141.59375 114.957031 147.078125 115.9375 C 150.21875 116.808594 150.191406 116.796875 148.660156 119.75 C 141.207031 132.378906 153.457031 148.792969 167.660156 146.078125 C 175.140625 145.640625 178.828125 138.175781 179.566406 142.445312 C 182.441406 149.773438 184.410156 157.585938 187.816406 164.636719 C 190.628906 158.003906 192.621094 151 195.105469 144.222656 C 196.351562 140.621094 196.300781 140.65625 199.476562 142.816406 C 211.429688 152.070312 230.109375 142.367188 228.828125 127.15625 C 229.4375 122.054688 223.390625 116.472656 226.6875 116.40625 C 248.234375 112.296875 259.484375 90.304688 261.140625 66.269531 C 261.40625 59.875 257.449219 47.054688 250.792969 39.703125 C 260.066406 59.890625 247.703125 78.71875 229.859375 88.824219 C 227.796875 90.050781 225.910156 90.246094 223.566406 89.546875 C 214.226562 86.738281 204.664062 84.964844 194.921875 84.414062 C 180.011719 83.574219 165.335938 85.09375 151.039062 89.515625 C 149.105469 90.113281 147.632812 89.867188 145.976562 88.886719 C 128.402344 78.972656 116.007812 59.78125 125.050781 39.8125 C 107.476562 60.355469 114.210938 91.453125 133.03125 108.859375 Z M 150.835938 127.390625 C 151.574219 124.886719 152.328125 122.390625 153.050781 119.882812 C 153.644531 117.5625 155.566406 119.542969 156.808594 120.117188 C 157.527344 120.53125 157.714844 120.960938 157.425781 121.90625 C 153.152344 133.65625 168.9375 136.570312 174.539062 128.699219 C 186.324219 138.933594 153.164062 150.746094 150.835938 127.390625 Z M 198.257812 134.835938 C 197.195312 132.484375 199.820312 130.636719 201.066406 128.898438 C 206.746094 137.117188 221.558594 132.753906 217.960938 122.171875 C 217.597656 120.601562 217.96875 120.21875 220.15625 119.125 C 223.351562 117.609375 223.273438 125.003906 224.316406 126.894531 C 224.535156 141.21875 205.683594 145.832031 198.257812 134.835938 Z M 180.386719 115.214844 C 179.945312 109.117188 174.761719 104.867188 171.457031 100.300781 C 177.433594 103.046875 182.101562 108.21875 186.109375 113.402344 C 187.804688 115.472656 187.828125 115.554688 189.210938 113.367188 C 193.042969 107.910156 198.160156 101.917969 204.484375 99.851562 C 200.09375 104.097656 196.382812 109.117188 194.863281 115.097656 C 214.097656 96.59375 227.636719 107.847656 242.652344 92.941406 C 229.601562 115.824219 201.144531 101.117188 187.90625 139.03125 C 175.601562 102.375 144.898438 114.488281 133.0625 93.464844 C 150.71875 108.507812 159.316406 96.015625 180.386719 115.214844 Z M 180.386719 115.214844 " fill-opacity="1" fill-rule="nonzero"/><path fill="#004aad" d="M 113.898438 183.421875 C 117.230469 183.351562 118.875 184.273438 118.394531 180.074219 C 118.375 177.875 117.378906 176.90625 115.542969 176.109375 C 99.738281 169.046875 85.613281 158.867188 73.902344 146.105469 C 52.148438 135.195312 28.714844 124.402344 15.585938 102.410156 C 17.851562 149.214844 70.390625 181.484375 113.898438 183.421875 Z M 113.898438 183.421875 " fill-opacity="1" fill-rule="nonzero"/><path fill="#004aad" d="M 307.863281 142.601562 C 304.699219 143.835938 302.109375 145.535156 299.804688 147.960938 C 288.511719 160.320312 274.464844 169.429688 259.320312 176.367188 C 258.226562 176.921875 257.277344 177.347656 257.410156 178.855469 C 257.691406 184.277344 256.585938 183.558594 262.425781 183.421875 C 262.429688 183.453125 262.4375 183.480469 262.4375 183.519531 C 304.988281 181.835938 357.972656 148.140625 360.054688 102.578125 C 347.714844 121.332031 328.621094 134.539062 307.863281 142.601562 Z M 307.863281 142.601562 " fill-opacity="1" fill-rule="nonzero"/><path fill="#004aad" d="M 83.480469 200.019531 C 91.058594 199.066406 138.480469 196.335938 106.335938 190.375 C 77.105469 184.355469 47.851562 171.839844 28.890625 147.914062 C 28.277344 167.855469 46.550781 182.492188 61.171875 193.339844 C 71.246094 200.335938 71.257812 200.316406 83.480469 200.019531 Z M 83.480469 200.019531 " fill-opacity="1" fill-rule="nonzero"/><path fill="#004aad" d="M 272.207031 189.765625 C 235.789062 196.441406 283.027344 198.402344 292.585938 200.179688 C 292.609375 200.054688 292.628906 199.925781 292.644531 199.804688 C 297.152344 199.550781 302.191406 200.730469 306.328125 198.550781 C 322.222656 188.3125 348.226562 168.917969 346.257812 147.957031 C 328.300781 171.167969 300.257812 183.636719 272.207031 189.765625 Z M 272.207031 189.765625 " fill-opacity="1" fill-rule="nonzero"/><path fill="#004aad" d="M 245.777344 217.683594 C 239.84375 223.125 243 232.128906 242.566406 239.226562 C 243.421875 253.34375 242.132812 266.988281 236.257812 280.089844 C 252.757812 277.238281 269.96875 272.117188 283.710938 262.371094 C 260.445312 258.847656 252.753906 237.027344 245.777344 217.683594 Z M 245.777344 217.683594 " fill-opacity="1" fill-rule="nonzero"/><path fill="#004aad" d="M 133.34375 229.929688 C 133.417969 229.929688 133.492188 229.929688 133.566406 229.933594 C 133.957031 226.074219 133.359375 222.394531 131.507812 218.972656 C 129.46875 215.816406 128.527344 223.214844 127.578125 224.476562 C 121.933594 242.011719 112.328125 259.664062 92.035156 262.003906 C 104.527344 272.703125 122.175781 276.285156 137.863281 280.363281 C 139.988281 280.992188 138.894531 279.019531 138.410156 277.941406 C 131.023438 262.917969 133.132812 246.070312 133.34375 229.929688 Z M 133.34375 229.929688 " fill-opacity="1" fill-rule="nonzero"/><path fill="#004aad" d="M 256.503906 210.996094 C 254.925781 209.304688 251.773438 211.46875 252.753906 213.664062 C 256.621094 227.785156 263.78125 240.601562 272.257812 252.46875 C 272.832031 253.332031 273.355469 253.988281 274.800781 253.460938 C 289.667969 247.664062 305.5625 241.867188 316.492188 229.734375 C 294.703125 236.269531 272.804688 225.066406 256.503906 210.996094 Z M 256.503906 210.996094 " fill-opacity="1" fill-rule="nonzero"/><path fill="#004aad" d="M 123.207031 212.824219 C 119.996094 202.578125 99.222656 239.746094 59.992188 230.042969 C 69.890625 241.964844 86.261719 247.191406 100.242188 253.230469 C 107.804688 254.390625 121.996094 220.101562 123.207031 212.824219 Z M 123.207031 212.824219 " fill-opacity="1" fill-rule="nonzero"/><path fill="#004aad" d="M 118.859375 201.371094 C 94.929688 203.0625 64.234375 212.78125 44.988281 193.402344 C 47.125 208.089844 68.367188 219.515625 80.5 225.972656 C 85.050781 224.875 128.417969 206.160156 118.859375 201.371094 Z M 118.859375 201.371094 " fill-opacity="1" fill-rule="nonzero"/><path fill="#004aad" d="M 257.378906 201.164062 C 256.113281 201.914062 254.109375 203.882812 256.132812 205.273438 C 267.207031 213.746094 279.589844 220.398438 292.691406 225.277344 C 297.003906 227.871094 310.328125 216.265625 314.945312 213.628906 C 321.121094 208.363281 329.410156 202.402344 330.34375 193.820312 C 310.625 211.652344 281.304688 204.359375 257.378906 201.164062 Z M 257.378906 201.164062 " fill-opacity="1" fill-rule="nonzero"/></svg>