<svg width="130" height="78" viewBox="0 0 130 78" fill="none" xmlns="http://www.w3.org/2000/svg">
    <g filter="url(#filter0_d_1_37)">
    <mask id="path-1-outside-1_1_37" maskUnits="userSpaceOnUse" x="3" y="-1" width="125" height="72" fill="black">
    <rect fill="white" x="3" y="-1" width="125" height="72"/>
    <path d="M4.06818 70V0.181816H31.6136C36.9091 0.181816 41.4205 1.19318 45.1477 3.21591C48.875 5.21591 51.7159 8 53.6705 11.5682C55.6477 15.1136 56.6364 19.2045 56.6364 23.8409C56.6364 28.4773 55.6364 32.5682 53.6364 36.1136C51.6364 39.6591 48.7386 42.4205 44.9432 44.3977C41.1705 46.375 36.6023 47.3636 31.2386 47.3636H13.6818V35.5341H28.8523C31.6932 35.5341 34.0341 35.0455 35.875 34.0682C37.7386 33.0682 39.125 31.6932 40.0341 29.9432C40.9659 28.1705 41.4318 26.1364 41.4318 23.8409C41.4318 21.5227 40.9659 19.5 40.0341 17.7727C39.125 16.0227 37.7386 14.6705 35.875 13.7159C34.0114 12.7386 31.6477 12.25 28.7841 12.25H18.8295V70H4.06818ZM80.0653 0.181816L94.1449 23.9773H94.6903L108.838 0.181816H125.509L104.202 35.0909L125.986 70H109.009L94.6903 46.1705H94.1449L79.8267 70H62.9176L84.7699 35.0909L63.3267 0.181816H80.0653Z"/>
    </mask>
    <path d="M4.06818 70V0.181816H31.6136C36.9091 0.181816 41.4205 1.19318 45.1477 3.21591C48.875 5.21591 51.7159 8 53.6705 11.5682C55.6477 15.1136 56.6364 19.2045 56.6364 23.8409C56.6364 28.4773 55.6364 32.5682 53.6364 36.1136C51.6364 39.6591 48.7386 42.4205 44.9432 44.3977C41.1705 46.375 36.6023 47.3636 31.2386 47.3636H13.6818V35.5341H28.8523C31.6932 35.5341 34.0341 35.0455 35.875 34.0682C37.7386 33.0682 39.125 31.6932 40.0341 29.9432C40.9659 28.1705 41.4318 26.1364 41.4318 23.8409C41.4318 21.5227 40.9659 19.5 40.0341 17.7727C39.125 16.0227 37.7386 14.6705 35.875 13.7159C34.0114 12.7386 31.6477 12.25 28.7841 12.25H18.8295V70H4.06818ZM80.0653 0.181816L94.1449 23.9773H94.6903L108.838 0.181816H125.509L104.202 35.0909L125.986 70H109.009L94.6903 46.1705H94.1449L79.8267 70H62.9176L84.7699 35.0909L63.3267 0.181816H80.0653Z" fill="white"/>
    <path d="M4.06818 70H3.06818V71H4.06818V70ZM4.06818 0.181816V-0.818184H3.06818V0.181816H4.06818ZM45.1477 3.21591L44.6708 4.09484L44.6749 4.09707L45.1477 3.21591ZM53.6705 11.5682L52.7934 12.0486L52.7971 12.0552L53.6705 11.5682ZM44.9432 44.3977L44.4812 43.5109L44.479 43.512L44.9432 44.3977ZM13.6818 47.3636H12.6818V48.3636H13.6818V47.3636ZM13.6818 35.5341V34.5341H12.6818V35.5341H13.6818ZM35.875 34.0682L36.3439 34.9514L36.3478 34.9493L35.875 34.0682ZM40.0341 29.9432L39.1489 29.4779L39.1467 29.4822L40.0341 29.9432ZM40.0341 17.7727L39.1467 18.2337L39.1503 18.2406L39.154 18.2475L40.0341 17.7727ZM35.875 13.7159L35.4106 14.6016L35.4191 14.606L35.875 13.7159ZM18.8295 12.25V11.25H17.8295V12.25H18.8295ZM18.8295 70V71H19.8295V70H18.8295ZM5.06818 70V0.181816H3.06818V70H5.06818ZM4.06818 1.18182H31.6136V-0.818184H4.06818V1.18182ZM31.6136 1.18182C36.7832 1.18182 41.122 2.16896 44.6708 4.09483L45.6247 2.33699C41.7189 0.217405 37.0349 -0.818184 31.6136 -0.818184V1.18182ZM44.6749 4.09707C48.2386 6.0093 50.9358 8.65731 52.7934 12.0486L54.5475 11.0878C52.4961 7.34268 49.5114 4.42251 45.6205 2.33475L44.6749 4.09707ZM52.7971 12.0552C54.6801 15.4317 55.6364 19.3505 55.6364 23.8409H57.6364C57.6364 19.0586 56.6153 14.7955 54.5438 11.0811L52.7971 12.0552ZM55.6364 23.8409C55.6364 28.3294 54.6696 32.2466 52.7654 35.6223L54.5073 36.605C56.6031 32.8897 57.6364 28.6251 57.6364 23.8409H55.6364ZM52.7654 35.6223C50.8655 38.9902 48.1141 41.6182 44.4812 43.5109L45.4052 45.2846C49.3631 43.2227 52.4072 40.328 54.5073 36.605L52.7654 35.6223ZM44.479 43.512C40.8818 45.3972 36.4816 46.3636 31.2386 46.3636V48.3636C36.723 48.3636 41.4591 47.3528 45.4074 45.2835L44.479 43.512ZM31.2386 46.3636H13.6818V48.3636H31.2386V46.3636ZM14.6818 47.3636V35.5341H12.6818V47.3636H14.6818ZM13.6818 36.5341H28.8523V34.5341H13.6818V36.5341ZM28.8523 36.5341C31.8001 36.5341 34.3158 36.0281 36.3439 34.9514L35.4061 33.1849C33.7524 34.0628 31.5862 34.5341 28.8523 34.5341V36.5341ZM36.3478 34.9493C38.3753 33.8614 39.9128 32.3459 40.9215 30.4042L39.1467 29.4822C38.3372 31.0405 37.102 32.2749 35.4022 33.187L36.3478 34.9493ZM40.9193 30.4085C41.9369 28.4725 42.4318 26.2746 42.4318 23.8409H40.4318C40.4318 25.9981 39.9949 27.8684 39.1489 29.4779L40.9193 30.4085ZM42.4318 23.8409C42.4318 21.387 41.9378 19.1954 40.9142 17.2979L39.154 18.2475C39.994 19.8046 40.4318 21.6584 40.4318 23.8409H42.4318ZM40.9215 17.3117C39.9105 15.3657 38.3673 13.8689 36.3309 12.8259L35.4191 14.606C37.1099 15.472 38.3395 16.6798 39.1467 18.2337L40.9215 17.3117ZM36.3394 12.8303C34.2903 11.7557 31.7539 11.25 28.7841 11.25V13.25C31.5416 13.25 33.7325 13.7215 35.4106 14.6015L36.3394 12.8303ZM28.7841 11.25H18.8295V13.25H28.7841V11.25ZM17.8295 12.25V70H19.8295V12.25H17.8295ZM18.8295 69H4.06818V71H18.8295V69ZM80.0653 0.181816L80.926 -0.327412L80.6356 -0.818184H80.0653V0.181816ZM94.1449 23.9773L93.2843 24.4865L93.5746 24.9773H94.1449V23.9773ZM94.6903 23.9773V24.9773H95.2592L95.5499 24.4883L94.6903 23.9773ZM108.838 0.181816V-0.818184H108.269L107.979 -0.329235L108.838 0.181816ZM125.509 0.181816L126.362 0.702794L127.29 -0.818184H125.509V0.181816ZM104.202 35.0909L103.348 34.5699L103.027 35.0967L103.353 35.6203L104.202 35.0909ZM125.986 70V71H127.789L126.834 69.4706L125.986 70ZM109.009 70L108.151 70.515L108.443 71H109.009V70ZM94.6903 46.1705L95.5475 45.6554L95.2561 45.1705H94.6903V46.1705ZM94.1449 46.1705V45.1705H93.5791L93.2877 45.6554L94.1449 46.1705ZM79.8267 70V71H80.3925L80.6839 70.515L79.8267 70ZM62.9176 70L62.07 69.4694L61.1119 71H62.9176V70ZM84.7699 35.0909L85.6175 35.6215L85.9465 35.0959L85.622 34.5675L84.7699 35.0909ZM63.3267 0.181816V-0.818184H61.5389L62.4746 0.705217L63.3267 0.181816ZM79.2047 0.691044L93.2843 24.4865L95.0055 23.468L80.926 -0.327412L79.2047 0.691044ZM94.1449 24.9773H94.6903V22.9773H94.1449V24.9773ZM95.5499 24.4883L109.698 0.692867L107.979 -0.329235L93.8308 23.4662L95.5499 24.4883ZM108.838 1.18182H125.509V-0.818184H108.838V1.18182ZM124.655 -0.339162L103.348 34.5699L105.055 35.6119L126.362 0.702794L124.655 -0.339162ZM103.353 35.6203L125.137 70.5294L126.834 69.4706L105.05 34.5615L103.353 35.6203ZM125.986 69H109.009V71H125.986V69ZM109.866 69.485L95.5475 45.6554L93.8332 46.6855L108.151 70.515L109.866 69.485ZM94.6903 45.1705H94.1449V47.1705H94.6903V45.1705ZM93.2877 45.6554L78.9695 69.485L80.6839 70.515L95.0021 46.6855L93.2877 45.6554ZM79.8267 69H62.9176V71H79.8267V69ZM63.7652 70.5306L85.6175 35.6215L83.9223 34.5603L62.07 69.4694L63.7652 70.5306ZM85.622 34.5675L64.1788 -0.341585L62.4746 0.705217L83.9178 35.6143L85.622 34.5675ZM63.3267 1.18182H80.0653V-0.818184H63.3267V1.18182Z" fill="black" mask="url(#path-1-outside-1_1_37)"/>
    </g>
    <defs>
    <filter id="filter0_d_1_37" x="0.0681763" y="0.181824" width="129.918" height="77.8182" filterUnits="userSpaceOnUse" color-interpolation-filters="sRGB">
    <feFlood flood-opacity="0" result="BackgroundImageFix"/>
    <feColorMatrix in="SourceAlpha" type="matrix" values="0 0 0 0 0 0 0 0 0 0 0 0 0 0 0 0 0 0 127 0" result="hardAlpha"/>
    <feOffset dy="4"/>
    <feGaussianBlur stdDeviation="2"/>
    <feComposite in2="hardAlpha" operator="out"/>
    <feColorMatrix type="matrix" values="0 0 0 0 1 0 0 0 0 1 0 0 0 0 1 0 0 0 0.25 0"/>
    <feBlend mode="normal" in2="BackgroundImageFix" result="effect1_dropShadow_1_37"/>
    <feBlend mode="normal" in="SourceGraphic" in2="effect1_dropShadow_1_37" result="shape"/>
    </filter>
    </defs>
    </svg>
    