<?xml version="1.0" encoding="utf-8"?>
<!-- Generator: Adobe Illustrator 27.9.0, SVG Export Plug-In . SVG Version: 6.00 Build 0)  -->
<svg version="1.1" xmlns="http://www.w3.org/2000/svg" xmlns:xlink="http://www.w3.org/1999/xlink" x="0px" y="0px"
	 viewBox="0 0 1000 1000" style="enable-background:new 0 0 1000 1000;" xml:space="preserve">
<style type="text/css">
	.st0{display:none;}
	.st1{display:inline;fill:#FEF5DE;}
	.st2{fill:#dfe6e8;}
	.st3{fill:#A94424;}
	.st4{fill:#FEF5DE;}
</style>
<g id="Layer_1" class="st0">
</g>
<g id="Layer_1_copy_2">
</g>
<g id="Layer_4" class="st0">
	<polygon class="st1" points="442.44,110.85 442.44,215.54 393.29,215.54 393.29,266.7 361.16,266.7 361.16,223.57 331.37,223.57 
		331.37,289.09 304.57,289.09 304.57,345.49 282.32,367.74 236.88,367.74 236.88,553.42 270.29,553.42 270.29,615.63 236.88,627.14 
		236.88,663.53 261.26,663.53 261.26,733.94 329.03,733.94 329.03,785.92 360.69,785.92 360.69,744.28 442.44,744.28 442.44,841.54 
		468.43,841.54 468.43,780.72 524.19,780.72 524.19,841.54 551.6,841.54 551.6,747.17 636.41,747.17 636.41,784.5 664.07,784.5 
		664.07,735.83 734.01,735.83 734.01,665.42 757.64,665.42 757.64,595.48 734.29,595.48 734.29,554.36 757.64,554.36 757.64,367.23 
		711.86,367.23 688.35,343.72 688.35,289.09 662.02,289.09 662.02,222.15 634.77,222.15 634.77,273.44 618.23,279.81 618.23,170.93 
		590.82,170.93 590.82,213.73 550.18,213.73 550.18,170.93 522.3,170.93 522.3,234.24 	"/>
</g>
<g id="Layer_1_copy">
	<g id="XMLID_00000029026274322615366290000010455122120810034818_">
		<g>
			<path class="st2" d="M780.4,499.56c0.01,17.4-14.02,31.31-31.72,31.44c-17.53,0.13-30.99-13.07-31.05-30.43
				c-0.07-19.16,13.16-33.04,31.58-33.15C766.07,467.33,780.39,482.08,780.4,499.56z"/>
			<path class="st2" d="M773.71,614.45c0.07,13.19-10.93,24.42-24.05,24.56c-11.81,0.13-21.85-7.89-24.61-18.65h1.02l10.9-26.46
				h-2.68c3.98-3.03,8.88-4.8,14.19-4.79C763.09,589.14,773.64,599.74,773.71,614.45z"/>
			<circle class="st3" cx="750.83" cy="419.25" r="20.76"/>
			<path class="st2" d="M736.97,593.9l-10.9,26.46h-1.02c-0.49-1.94-0.75-3.98-0.74-6.07c0.05-8.41,3.97-15.83,9.98-20.39H736.97z"
				/>
			<path class="st2" d="M702.53,593.9h31.76c-6.01,4.56-9.93,11.98-9.98,20.39c-0.01,2.09,0.25,4.13,0.74,6.07h-46.38v-175.8
				c2.46,0.77,5.08,1.17,7.79,1.14c6.18-0.07,11.89-2.59,16.19-6.62c-0.19,46.71-0.11,98.85-0.12,145.52
				C702.53,587.1,702.53,589.59,702.53,593.9z"/>
			<path class="st2" d="M711.16,323.13c13.01,0.15,21.98,9.59,21.85,23.01c-0.12,12.66-10.44,22.61-23.36,22.51
				c-11.87-0.09-21.75-10.85-21.74-23.68C687.91,332.67,698.23,322.98,711.16,323.13z"/>
			<path class="st3" d="M678.3,659.85c14.92,0.02,27.6,12.72,27.5,27.53c-0.11,15.69-11.97,27.91-26.97,27.78
				c-15.54-0.12-27.49-12.38-27.3-28.01C651.72,671.66,663.33,659.82,678.3,659.85z"/>
			<path class="st2" d="M702.65,438.47c0,0.2,0,0.41,0,0.61c-4.3,4.03-10.01,6.55-16.19,6.62c-2.71,0.03-5.33-0.37-7.79-1.14v-0.5
				L702.65,438.47z"/>
			<path class="st2" d="M678.67,444.06v0.5c-10.18-3.16-17.62-12.58-17.55-23.58c0.08-13.99,10.84-25.21,24.16-25.18
				c14.61,0.03,25.16,10.63,25.24,25.34c0.04,6.98-3.03,13.41-7.87,17.94c0-0.2,0-0.41,0-0.61L678.67,444.06z"/>
			<path class="st2" d="M649.43,312.88c12.84-0.04,23.03,10.15,22.97,22.96c-0.05,11.9-10.46,22.18-22.23,21.97
				c-12.38-0.22-22.36-10.28-22.31-22.49C627.9,322.91,637.51,312.91,649.43,312.88z"/>
			<path class="st2" d="M637.53,263.97c0.19,13.9-10.49,25.02-24.14,25.12c-14,0.1-25.93-11.28-26.03-24.85
				c-0.1-13.68,10.91-25.09,24.31-25.19C625.93,238.95,637.33,249.94,637.53,263.97z"/>
			<path class="st2" d="M610.56,718.22c14.37-0.01,25.78,11.3,25.85,25.62c0.07,14.73-11.18,26.38-25.58,26.49
				c-13.79,0.11-26.11-11.95-26.14-25.58C584.65,729.5,595.64,718.24,610.56,718.22z"/>
			<path class="st2" d="M610.83,770.33c14.4-0.11,25.65-11.76,25.58-26.49c-0.07-14.32-11.48-25.63-25.85-25.62
				c-14.92,0.02-25.91,11.28-25.87,26.53C584.72,758.38,597.04,770.44,610.83,770.33z M610.55,718.04
				c14.49,0,26.23,11.75,26.23,26.24c0,14.49-11.74,26.23-26.23,26.23s-26.24-11.74-26.24-26.23
				C584.31,729.79,596.06,718.04,610.55,718.04z"/>
			<path class="st4" d="M495.43,388.18c10.02,17.25,18.98,34.35,29.51,50.42c15.5,23.65,32.23,46.5,48.22,69.83
				c13.1,19.13,21.33,39.91,20.9,63.61c-0.64,35.61-16.31,63.57-44.3,84.35c-14.37,10.67-31.78,13.59-49.35,14.24
				c-0.59,0.02-1.18,0.03-1.78,0.05c-0.79,0.02-1.58,0.04-2.37,0.05c-0.8,0.02-1.58,0.03-2.37,0.03
				c-69.76-0.21-100.34-64.68-93.94-112.57c2.37-17.74,8.67-33.71,18.75-48.35c18.69-27.15,37.7-54.1,55.84-81.62
				c7-10.61,12.02-22.54,17.92-33.88C493.51,392.32,494.44,390.23,495.43,388.18z"/>
			<path class="st3" d="M556.86,195.86c9.87,0,17.88,8,17.88,17.87c0,9.87-8.01,17.88-17.88,17.88s-17.87-8.01-17.87-17.88
				C538.99,203.86,546.99,195.86,556.86,195.86z"/>
			<path class="st3" d="M500.41,670.63c17.57-0.65,34.98-3.57,49.35-14.24c27.99-20.78,43.66-48.74,44.3-84.35
				c0.43-23.7-7.8-44.48-20.9-63.61c-15.99-23.33-32.72-46.18-48.22-69.83c-10.53-16.07-19.49-33.17-29.51-50.42
				c-0.99,2.05-1.92,4.14-2.97,6.16c-5.9,11.34-10.92,23.27-17.92,33.88c-18.14,27.52-37.15,54.47-55.84,81.62
				c-10.08,14.64-16.38,30.61-18.75,48.35c-6.4,47.89,24.18,112.36,93.94,112.57c-93.63,0.24-134.69-86.1-126.13-150.17
				c3.05-22.84,11.53-47.06,24.17-66.04l103.2-187.85l108.4,191.02c16.05,24.5,23.72,51.24,23.18,81.35
				c-0.86,47.5-21.77,84.8-59.1,112.52C548.07,666.1,524.32,669.87,500.41,670.63z"/>
			<path class="st2" d="M498.63,670.68c0.6-0.02,1.19-0.03,1.78-0.05C499.81,670.65,499.22,670.67,498.63,670.68z"/>
			<path class="st2" d="M496.26,670.73c0.79-0.01,1.58-0.03,2.37-0.05c-0.79,0.03-1.57,0.05-2.35,0.06c-0.8,0.01-1.6,0.02-2.39,0.02
				C494.68,670.76,495.46,670.75,496.26,670.73z"/>
			<path class="st3" d="M434.13,195.81c8.32,0,15.07,6.74,15.07,15.07s-6.75,15.07-15.07,15.07c-8.33,0-15.08-6.74-15.08-15.07
				S425.8,195.81,434.13,195.81z"/>
			<path class="st2" d="M408.13,743.5c0,3.28-0.6,6.41-1.7,9.3c0.88-2.55,1.36-5.29,1.4-8.13c0.12-8.85-3.58-16.63-9.5-21.61
				C404.31,727.86,408.13,735.23,408.13,743.5z"/>
			<path class="st2" d="M398.33,723.06c5.92,4.98,9.62,12.76,9.5,21.61c-0.04,2.84-0.52,5.58-1.4,8.13
				c-3.75,9.9-13.32,16.94-24.53,16.94c-11.05,0-20.5-6.83-24.37-16.5c-0.01-0.02-0.01-0.04-0.02-0.06c-1-2.84-1.54-5.92-1.55-9.14
				c-0.03-14.68,11.71-26.61,26.23-26.76C388.3,717.34,393.9,719.49,398.33,723.06z"/>
			<path class="st2" d="M400.76,176.68c0.06,20.06,0.21,49.47,0.14,69.79c-4.43-5.29-10.85-8.66-17.89-8.67
				c-2.77,0-5.45,0.45-7.95,1.31c0-22.91,0-45.37,0-68.18c8.53,0,16.71,0,25.7,0C400.76,172.88,400.75,174.78,400.76,176.68z"/>
			<path class="st2" d="M400.9,246.47c0,0.28,0,0.56,0,0.83l-25.84-5.5c0-0.9,0-1.79,0-2.69c2.5-0.86,5.18-1.31,7.95-1.31
				C390.05,237.81,396.47,241.18,400.9,246.47z"/>
			<path class="st2" d="M382.62,717.27c6,0.03,11.44,2.17,15.71,5.79c-4.43-3.57-10.03-5.72-16.14-5.78
				C382.33,717.27,382.48,717.27,382.62,717.27z"/>
			<path class="st2" d="M357.57,264.24c-0.19-11.65,7.21-21.68,17.49-25.13c0,0.9,0,1.79,0,2.69l25.84,5.5c0-0.27,0-0.55,0-0.83
				c3.84,4.56,6.2,10.53,6.21,16.98c0.02,14.34-10.81,25.04-25.36,25.07C368.45,288.54,357.8,277.84,357.57,264.24z"/>
			<path class="st2" d="M366.14,334.63c0.17,12.81-9.73,22.94-22.33,22.87c-12.17-0.07-22.15-9.87-22.21-21.82
				c-0.06-13.23,9.1-22.71,22.13-22.87C355.45,312.66,365.99,322.92,366.14,334.63z"/>
			<path class="st2" d="M357.53,753.24c3.87,9.67,13.32,16.5,24.37,16.5c11.21,0,20.78-7.04,24.53-16.94
				c-3.48,10.26-13.08,17.69-24.33,17.8C370.74,770.71,361.17,763.52,357.53,753.24z"/>
			<path class="st2" d="M382.19,717.28c-14.52,0.15-26.26,12.08-26.23,26.76c0.01,3.22,0.55,6.3,1.55,9.14
				c-1.2-2.99-1.85-6.26-1.85-9.68c0-14.49,11.75-26.23,26.24-26.23C382,717.27,382.09,717.27,382.19,717.28z"/>
			<path class="st3" d="M342.08,687.19c0.2,15.21-11.95,27.85-26.96,28.03c-14.82,0.18-26.96-12.09-27.27-27.56
				c-0.3-14.6,11.8-27.47,26.03-27.68C329.6,659.76,341.87,671.59,342.08,687.19z"/>
			<path class="st2" d="M343.59,604.74c-6.69,0.77-9.72,2.91-10.95,8.51v-5.8V592.7v-87.29c5.58-36.61,25.5-67.19,43-98.74
				c25.06-45.18,50.36-90.23,75.41-135.41c0,0,16.22-30.81,16.46-39.6l0.1-81.82l52.03,80.04c0,0,31.34,56.98,37.95,68.96
				c26.44,47.92,53.13,95.69,79.58,143.59c13.28,24.04,22.59,49.38,24.37,77.11c2.08,32.22-2.5,63.02-16.77,92.42
				c-18.08,37.25-44.48,65.8-82.95,81.98c-11.2,4.72-23.27,7.38-35.57,11.18c0,25.88,0.01,52.01-0.01,78.14
				c0,9.91,0.1,19.84-0.16,29.75c-0.37,14.73-11.81,26.62-26.92,28.35c-13.79,1.58-27.41-7.85-30.89-21.68
				c-0.83-3.27-0.96-6.79-0.97-10.19c-0.12-33.53-0.14-67.06-0.21-100.59c-0.01-1.39-0.26-2.79-0.38-4.1
				C406.88,694.22,367.44,659.03,343.59,604.74z M626.71,539.07c0.54-30.11-7.13-56.85-23.18-81.35L495.13,266.7l-103.2,187.85
				c-12.64,18.98-21.12,43.2-24.17,66.04c-8.56,64.07,32.5,150.41,126.13,150.17c0.79,0,1.59-0.01,2.39-0.02
				c0.78-0.01,1.56-0.03,2.35-0.06c0.59-0.01,1.18-0.03,1.78-0.05c23.91-0.76,47.66-4.53,67.2-19.04
				C604.94,623.87,625.85,586.57,626.71,539.07z"/>
			<path class="st2" d="M332.64,613.25v7.11h-63.13c0.51-2.01,0.78-4.13,0.78-6.3c0-8.88-4.49-16.72-11.32-21.36h45.6v14.75h27.73
				l0.06,7.33C332.44,614.24,332.53,613.73,332.64,613.25z"/>
			<path class="st2" d="M332.64,607.45v5.8c-0.11,0.48-0.2,0.99-0.28,1.53l-0.06-7.33H332.64z"/>
			<polygon class="st2" points="332.64,592.7 332.64,607.45 332.3,607.45 332.19,592.7 			"/>
			<path class="st2" d="M332.64,505.41v87.29h-0.45l-0.7-89c0.06,2.76,0.16,5.53,0.31,8.31
				C332.03,509.79,332.31,507.59,332.64,505.41z"/>
			<path class="st2" d="M331.37,488.21c-0.01,5.15,0,10.31,0.12,15.49l0.7,89h-27.62V441.09c1.35,0.24,2.75,0.36,4.17,0.36
				c13.2,0,23.9-10.7,23.9-23.91v87.87c-0.33,2.18-0.61,4.38-0.84,6.6c-0.15-2.78-0.25-5.55-0.31-8.31L331.37,488.21z"/>
			<path class="st2" d="M332.64,416.88v0.66c0-0.21,0-0.43-0.02-0.64v-0.01L332.64,416.88z"/>
			<path class="st2" d="M332.64,417.54c0,13.21-10.7,23.91-23.9,23.91c-1.42,0-2.82-0.12-4.17-0.36l28.05-24.19
				C332.64,417.11,332.64,417.33,332.64,417.54z"/>
			<path class="st2" d="M332.62,416.89L332.62,416.89l-28.05,24.2c-11.22-1.98-19.74-11.76-19.74-23.55c0-13.2,10.7-23.9,23.91-23.9
				C321.72,393.64,332.29,403.99,332.62,416.89z"/>
			<polygon class="st2" points="332.19,592.7 332.3,607.45 304.57,607.45 304.57,592.7 			"/>
			<path class="st2" d="M331.37,488.21l0.12,15.49C331.37,498.52,331.36,493.36,331.37,488.21z"/>
			<path class="st3" d="M282.36,322.33c12.53,0,22.69,10.15,22.69,22.68s-10.16,22.68-22.69,22.68c-12.52,0-22.68-10.15-22.68-22.68
				S269.84,322.33,282.36,322.33z"/>
			<path class="st2" d="M271.8,521.3c0.33-0.35,0.66-0.71,0.97-1.07C272.46,520.59,272.14,520.95,271.8,521.3z"/>
			<path class="st2" d="M265.2,526.61c2.41-1.47,4.61-3.25,6.57-5.27C269.84,523.39,267.63,525.16,265.2,526.61z"/>
			<path class="st2" d="M270.29,614.06c0,2.17-0.27,4.29-0.78,6.3h-28.38V592.7h17.84C265.8,597.34,270.29,605.18,270.29,614.06z"/>
			<path class="st2" d="M241.13,620.36h28.38c-2.81,11.21-12.95,19.51-25.03,19.51c-14.26,0-25.81-11.55-25.81-25.81
				c0-14.25,11.55-25.81,25.81-25.81c5.37,0,10.36,1.64,14.49,4.45h-17.84V620.36z"/>
			<path class="st2" d="M264.53,527c0.22-0.13,0.44-0.26,0.67-0.39C264.98,526.75,264.76,526.88,264.53,527z"/>
			<path class="st2" d="M242.54,397.37c11.17,0.09,20.38,10,20.25,21.76c-0.15,12.7-9.45,22.06-21.81,21.97
				c-11.5-0.08-21.39-10.69-21.31-22.86C219.75,406.22,229.56,397.27,242.54,397.37z"/>
			<path class="st2" d="M248.58,467.25c17.67,0.12,31.85,14.49,31.77,32.2c-0.04,8.02-2.85,15.22-7.52,20.71
				c-0.02,0.02-0.04,0.05-0.06,0.07c-0.31,0.36-0.64,0.72-0.97,1.07c0,0.02-0.01,0.03-0.03,0.04c-1.96,2.02-4.16,3.8-6.57,5.27
				c-0.23,0.13-0.45,0.26-0.67,0.39c-0.37,0.21-0.74,0.41-1.11,0.6c-4.37,2.22-9.36,3.44-14.69,3.38
				c-18.36-0.21-32.18-13.91-32.01-31.71C216.9,481.27,230.97,467.14,248.58,467.25z"/>
			<path class="st2" d="M248.53,466.98c17.75,0,32.14,14.39,32.14,32.14c0,8.04-2.95,15.4-7.84,21.04
				c4.67-5.49,7.48-12.69,7.52-20.71c0.08-17.71-14.1-32.08-31.77-32.2c-17.61-0.11-31.68,14.02-31.86,32.02
				c-0.17,17.8,13.65,31.5,32.01,31.71c5.33,0.06,10.32-1.16,14.69-3.38c-4.45,2.34-9.52,3.66-14.89,3.66
				c-17.75,0-32.14-14.39-32.14-32.14S230.78,466.98,248.53,466.98z"/>
		</g>
		<g>
		</g>
	</g>
</g>
</svg>
